<?xml version="1.0" encoding="UTF-8"?> <svg xmlns="http://www.w3.org/2000/svg" height="512" viewBox="0 0 256 256" width="512"><path d="M85.148 50.822V86.58c0 2.564.225 5.06.663 7.466 2.598 14.629 12.672 26.267 23.681 31.17 11.615 5.6 25.311 5.622 37.017-.011 12.414-5.948 21.286-17.508 23.681-31.158.438-2.429.663-4.936.663-7.466V50.822z" fill="#ffb69f"></path><path d="M85.148 50.822V86.58c0 2.564.225 5.06.663 7.466 2.598 14.629 12.672 26.267 23.681 31.17 11.615 5.6 25.311 5.622 37.017-.011 12.414-5.948 21.286-17.508 23.681-31.158.438-2.429.663-4.936.663-7.466V50.822z" fill="#ffb69f"></path><path d="M211.872 50.822c-4.009-1.325-8.149-2.482-10.473-12.495-2.141 9.222-5.571 10.875-10.473 12.495 7.996 2.642 9.202 7.017 10.473 12.495 2.191-9.443 5.815-10.956 10.473-12.495zM228.026 77.776c-4.009-1.325-8.149-2.482-10.473-12.495-2.141 9.222-5.571 10.875-10.473 12.495 7.996 2.642 9.202 7.017 10.473 12.495 2.191-9.443 5.815-10.956 10.473-12.495zM83.137 119.504c-4.009-1.325-8.149-2.482-10.473-12.495-2.141 9.222-5.571 10.875-10.473 12.495 7.996 2.642 9.202 7.017 10.473 12.495 2.191-9.443 5.815-10.955 10.473-12.495z" fill="#f0c020"></path><path d="M248.326 187.718H7.674l13.592 30.641L7.674 249h240.652l-13.592-30.641z" fill="#fc5d3d"></path><path d="M231.413 240.5H210.5a2.5 2.5 0 110-5h17.069l-7.155-16.127a2.502 2.502 0 010-2.027l8.714-19.641a2.5 2.5 0 014.57 2.028l-8.264 18.627 8.264 18.627c.733 1.651-.479 3.513-2.285 3.513z" fill="#ffcbc2"></path><path d="M211.87 187.72H44.13c0-2.007-.062-4.479.55-8.05 2.634-14.629 13.048-25.711 26.37-29.68l38.44-11.47v.01s5.2 16.64 18.51 16.64 18.51-16.64 18.51-16.64v-.01l38.44 11.47c13.302 3.963 23.732 15.028 26.37 29.68.61 3.559.55 6.018.55 8.05z" fill="#72c1e8"></path><path d="M211.87 187.72H44.13c0-2.007-.062-4.479.55-8.05h166.64c.61 3.559.55 6.018.55 8.05z" fill="#68b0d4"></path><path d="M55.968 179.054a2.5 2.5 0 01-1.447-3.226 29.731 29.731 0 011.334-2.992 2.499 2.499 0 114.447 2.284 24.529 24.529 0 00-1.107 2.486 2.502 2.502 0 01-3.227 1.448zm6.336-11.271a2.5 2.5 0 01.209-3.529 28.795 28.795 0 0110.961-6.115l29.544-8.813a2.497 2.497 0 013.11 1.681 2.498 2.498 0 01-1.681 3.11l-29.545 8.814a23.804 23.804 0 00-9.069 5.062 2.5 2.5 0 01-3.529-.21z" fill="#c5e5ff"></path><path d="M141.312 103.434c-.269 7.125-6.122 12.801-13.312 12.801s-13.043-5.676-13.312-12.801z" fill="#fc5d3d"></path><path d="M173.033 12.31L165.274 7a14.707 14.707 0 01-14.444 11.966h-46.226c-10.62 0-19.451 8.597-19.451 19.452v12.401h85.695l5.361-5.432c9.512-9.609 7.908-25.519-3.176-33.077z" fill="#7c7b7a"></path><path d="M85.152 50.816v24.257l17.209-24.257zM153.639 50.816l17.209 24.257V50.816z" fill="#afafaf"></path><path d="M85.811 94.046h-4.992c-6.814 0-12.324-5.532-12.324-12.335 0-6.792 5.498-12.335 12.324-12.335h4.329V86.58c0 2.563.225 5.06.663 7.466zM187.505 81.711c0 6.792-5.498 12.335-12.324 12.335h-4.992c.438-2.429.663-4.936.663-7.466V69.376h4.329c6.815 0 12.324 5.532 12.324 12.335zM109.492 125.21v13.324s5.195 16.63 18.508 16.63 18.508-16.63 18.508-16.63v-13.336c-11.705 5.634-25.401 5.612-37.016.012z" fill="#ffb69f"></path><path d="M165.287 43.491a2.5 2.5 0 01-.021-3.536l2.154-2.181a2.5 2.5 0 013.556 3.514l-2.154 2.181a2.497 2.497 0 01-3.535.022zm7.954-10.282a2.5 2.5 0 01-2.401-2.594c.138-3.415-1.372-6.452-3.892-8.394a2.5 2.5 0 013.053-3.96c3.799 2.929 6.025 7.466 5.835 12.546a2.5 2.5 0 01-2.595 2.402z" fill="#afafaf"></path><path d="M76.167 200.933l5.053 7.085 8.46 2.723c2.836.913 3.908 4.362 2.09 6.721l-5.262 6.829.161 8.921c.054 3.016-2.932 5.15-5.768 4.122l-8.236-2.985-8.236 2.985c-2.836 1.028-5.822-1.106-5.768-4.122l.161-8.921-5.262-6.829c-1.818-2.36-.746-5.809 2.09-6.721l8.46-2.723 5.053-7.085c1.714-2.405 5.289-2.405 7.004 0zM131.503 200.933l5.053 7.085 8.46 2.723c2.836.913 3.908 4.362 2.09 6.721l-5.262 6.829.161 8.921c.054 3.016-2.932 5.15-5.768 4.122L128 234.349l-8.236 2.985c-2.836 1.028-5.822-1.106-5.768-4.122l.161-8.921-5.262-6.829c-1.818-2.36-.746-5.809 2.09-6.721l8.46-2.723 5.053-7.085c1.715-2.405 5.289-2.405 7.005 0zM186.838 200.933l5.053 7.085 8.46 2.723c2.836.913 3.908 4.362 2.09 6.721l-5.262 6.829.161 8.921c.054 3.016-2.932 5.15-5.768 4.122l-8.236-2.985-8.236 2.985c-2.836 1.028-5.822-1.106-5.768-4.122l.161-8.921-5.262-6.829c-1.818-2.36-.746-5.809 2.09-6.721l8.46-2.723 5.053-7.085c1.714-2.405 5.289-2.405 7.004 0z" fill="#f0c020"></path><g><path d="M46 240.096H27a2.5 2.5 0 110-5h19a2.5 2.5 0 110 5z" fill="#ffcbc2"></path></g><g><path d="M163.89 110.12c-1.07-.8-2.71-.55-3.5.51-.787 1.065-.633 2.646.521 3.5 1.111.827 2.697.575 3.489-.51l.011-.01a2.503 2.503 0 00-.521-3.49zM190.143 53.196c6.868 2.27 7.646 5.618 8.821 10.687.599 2.575 4.277 2.563 4.871 0 1.952-8.417 4.833-9.369 8.821-10.686 2.284-.754 2.279-3.995 0-4.748-3.806-1.261-6.817-2.05-8.821-10.687-.597-2.566-4.272-2.573-4.871 0-1.953 8.417-4.834 9.369-8.821 10.687-2.284.754-2.279 3.994 0 4.747zm11.266-7.414c1.304 2.451 2.813 4.003 4.37 5.066-1.634 1.099-3.089 2.608-4.324 4.89-.989-1.761-2.406-3.424-4.566-4.855 1.715-1.125 3.238-2.688 4.52-5.101zM206.296 75.402c-2.284.754-2.279 3.994 0 4.747 6.869 2.271 7.646 5.618 8.821 10.686.595 2.567 4.274 2.573 4.871 0 1.952-8.416 4.833-9.368 8.821-10.686 2.141-.707 2.53-3.912-.265-4.834-3.688-1.215-6.602-2.174-8.557-10.6-.597-2.566-4.272-2.573-4.871 0-1.952 8.417-4.833 9.369-8.82 10.687zm11.267-2.666c1.304 2.452 2.813 4.003 4.37 5.066-1.634 1.099-3.088 2.607-4.323 4.889-.99-1.76-2.407-3.424-4.567-4.854 1.715-1.126 3.237-2.688 4.52-5.101zM61.407 121.878c6.869 2.27 7.646 5.618 8.821 10.687.596 2.57 4.276 2.569 4.871 0 1.953-8.417 4.834-9.369 8.822-10.686 2.284-.754 2.279-3.995 0-4.748-3.82-1.261-6.822-2.068-8.822-10.687-.597-2.566-4.272-2.573-4.871 0-1.953 8.417-4.834 9.369-8.821 10.686-2.283.755-2.278 3.995 0 4.748zm11.267-7.414c1.304 2.451 2.813 4.003 4.371 5.066-1.635 1.099-3.089 2.607-4.324 4.89-.989-1.761-2.406-3.425-4.567-4.855 1.716-1.125 3.238-2.687 4.52-5.101zM112.189 103.53c.311 8.485 7.295 15.21 15.811 15.21 8.509 0 15.5-6.722 15.81-15.21a2.51 2.51 0 00-2.5-2.6h-26.62c-1.414 0-2.561 1.193-2.501 2.6zm26.21 2.4c-1.33 4.6-5.6 7.81-10.399 7.81s-9.07-3.21-10.4-7.81zM105.561 72.731v5.045a2.5 2.5 0 105 0v-5.045a2.5 2.5 0 10-5 0zM145.439 72.731v5.045a2.5 2.5 0 105 0v-5.045a2.5 2.5 0 10-5 0zM130.5 90.028V75.253a2.5 2.5 0 10-5 0v14.774a2.5 2.5 0 005 .001zM90.445 208.361l-7.671-2.469-4.572-6.411c-2.708-3.798-8.368-3.8-11.076 0l-4.571 6.41-7.673 2.469c-4.477 1.441-6.175 6.9-3.304 10.627l4.728 6.135-.145 8.043c-.085 4.764 4.64 8.144 9.12 6.518l7.383-2.677 7.385 2.677c4.469 1.62 9.205-1.743 9.119-6.518l-.145-8.044 4.727-6.135c2.871-3.724 1.176-9.182-3.305-10.625zm-.656 7.576l-5.262 6.829a2.504 2.504 0 00-.52 1.571l.16 8.921a1.803 1.803 0 01-2.416 1.727l-8.236-2.986c-.548-.2-1.154-.2-1.704 0l-8.234 2.985a1.802 1.802 0 01-2.416-1.727l.16-8.92a2.504 2.504 0 00-.52-1.571l-5.263-6.829a1.802 1.802 0 01.875-2.816l8.461-2.723c.513-.165.958-.49 1.27-.929l5.052-7.084c.686-.961 2.25-.961 2.936 0l5.053 7.085a2.5 2.5 0 001.27.928l8.459 2.723a1.8 1.8 0 01.875 2.816zM145.781 208.361l-7.671-2.469-4.572-6.411c-2.708-3.798-8.368-3.799-11.076 0l-4.572 6.411-7.672 2.469c-4.478 1.443-6.175 6.9-3.304 10.627l4.728 6.135-.146 8.044c-.083 4.76 4.639 8.145 9.121 6.517l7.383-2.677 7.384 2.677c4.478 1.621 9.203-1.75 9.12-6.518l-.146-8.044 4.728-6.135c2.871-3.725 1.176-9.183-3.305-10.626zm-.656 7.576l-5.263 6.829a2.502 2.502 0 00-.52 1.571l.161 8.92a1.803 1.803 0 01-2.416 1.728l-8.235-2.986a2.503 2.503 0 00-1.705 0l-8.234 2.985a1.803 1.803 0 01-2.417-1.727l.161-8.92a2.498 2.498 0 00-.52-1.571l-5.263-6.829a1.8 1.8 0 01.875-2.816l8.46-2.723a2.5 2.5 0 001.27-.928l5.053-7.085c.686-.961 2.25-.961 2.936 0l5.053 7.085a2.5 2.5 0 001.27.928l8.459 2.723a1.8 1.8 0 01.875 2.816zM201.117 208.361l-7.672-2.469-4.571-6.41c-2.708-3.798-8.368-3.799-11.076 0l-4.572 6.411-7.672 2.469c-4.478 1.443-6.175 6.9-3.304 10.627l4.727 6.135-.145 8.043c-.085 4.772 4.65 8.143 9.119 6.518l7.385-2.677 7.384 2.677c4.469 1.62 9.205-1.743 9.119-6.518l-.145-8.044 4.728-6.135c2.87-3.725 1.176-9.184-3.305-10.627zm-.656 7.576l-5.263 6.829a2.508 2.508 0 00-.52 1.571l.16 8.921a1.802 1.802 0 01-2.415 1.727l-8.235-2.986c-.55-.2-1.156-.2-1.704 0l-8.236 2.985a1.802 1.802 0 01-2.416-1.727l.16-8.92a2.5 2.5 0 00-.52-1.571l-5.262-6.829a1.8 1.8 0 01.875-2.816l8.46-2.723a2.5 2.5 0 001.27-.928l5.053-7.085c.686-.961 2.25-.961 2.936 0l5.052 7.084c.312.438.757.764 1.27.929l8.46 2.722a1.803 1.803 0 01.875 2.817z"></path><path d="M237.47 218.36l13.14-29.63c.738-1.642-.465-3.51-2.279-3.51h-33.976a39.545 39.545 0 00-.574-5.97v-.02c-2.721-15.17-13.5-27.29-28.12-31.64l-36.65-10.936v-9.932a45.612 45.612 0 008.15-5.432 2.512 2.512 0 00.31-3.52c-.86-1.01-2.51-1.16-3.53-.31-7.348 6.184-16.638 9.46-25.97 9.46-22.352 0-40.32-18.294-40.32-40.34V75.874L103.65 53.32h48.699l16 22.553V86.58a40.51 40.51 0 01-3.27 15.91 2.513 2.513 0 001.31 3.29c1.24.52 2.75-.08 3.28-1.3 0-.01.01-.01.01-.02a44.861 44.861 0 002.545-7.91h2.955c8.17-.01 14.82-6.66 14.82-14.84s-6.65-14.83-14.82-14.83h-1.83V51.843l4.636-4.697c10.596-10.703 8.844-28.45-3.541-36.898l-7.758-5.311c-1.484-1.017-3.532-.174-3.868 1.597a12.214 12.214 0 01-11.988 9.932h-46.227c-12.104 0-21.951 9.848-21.951 21.952 0 4.415-.003 16.565-.003 28.462h-1.83c-8.17 0-14.829 6.65-14.829 14.83.01 8.18 6.659 14.83 14.829 14.84h2.967c3.119 13.664 12.267 24.748 23.204 30.227v9.875l-24.81 7.408a2.497 2.497 0 00-1.68 3.11c.38 1.28 1.81 2.07 3.109 1.68l24.368-7.269c3.7 8.716 10.495 16.077 20.023 16.089 9.514-.012 16.338-7.409 20.022-16.089l36.207 10.809c12.801 3.82 22.23 14.44 24.63 27.72v.01c.301 1.75.45 3.33.5 5.1H46.64c.03-1.21.12-2.88.5-5.13 1.95-10.78 8.521-19.89 18.04-24.99a2.505 2.505 0 001.021-3.39c-.658-1.238-2.21-1.671-3.381-1.02-10.88 5.82-18.39 16.22-20.6 28.54a39.487 39.487 0 00-.574 5.99H7.67c-1.836 0-3.013 1.897-2.28 3.51l13.141 29.63L5.39 247.99c-.74 1.63.474 3.51 2.28 3.51h208.31a2.5 2.5 0 000-5H11.52l12.03-27.13c.29-.64.29-1.38 0-2.02l-12.03-27.13h232.96l-12.029 27.13c-.29.64-.29 1.38 0 2.02l12.029 27.13h-8.5a2.5 2.5 0 000 5h12.351c1.811 0 3.019-1.885 2.279-3.51zM87.652 67.229V53.32h9.867zM158.48 53.32h9.867v13.909zm16.7 18.56c5.41.01 9.811 4.42 9.82 9.83-.01 5.41-4.41 9.83-9.82 9.84h-2.1c.144-1.323.27-3.342.27-4.97v-14.7zm-70.576-50.414h46.227c7.006 0 13.186-4.242 15.836-10.484l4.954 3.392.004.002c9.798 6.681 11.217 20.756 2.806 29.254l-4.625 4.686H87.653v-9.898c-.001-9.348 7.604-16.952 16.951-16.952zM80.819 91.55c-5.409-.01-9.819-4.43-9.829-9.84.01-5.41 4.42-9.83 9.829-9.83h1.83v14.7c0 1.635.126 3.658.271 4.97zM128 152.66h-.021c-7.992 0-13.647-7.78-15.989-14.533V129c4.823 1.831 10.377 2.92 15.979 2.92a45.999 45.999 0 0016.04-2.93v9.115c-2.533 7.212-8.194 14.555-16.009 14.555z"></path><circle cx="225.979" cy="249" r="2.5"></circle><path d="M72.6 146.92a2.497 2.497 0 00-1.68 3.11 2.492 2.492 0 003.11 1.68 2.506 2.506 0 001.68-3.11c-.391-1.28-1.811-2.07-3.11-1.68z"></path></g></svg> 