<?xml version="1.0" encoding="UTF-8"?> <svg xmlns="http://www.w3.org/2000/svg" height="512" viewBox="0 0 511.773 511.773" width="512"><path d="M205.446 378.052h119.421s34.359-5.848 34.682-60.776l-7.493-98.565c24-34.711 19.001-62.711-16-84.134-33.38-20.431-33-43.077-33-43.077h-97.61 1.242-97.61s.38 22.646-33 43.077c-35.001 21.423-40 49.423-16 84.134 26.953 38.982-19.278 51.289-19 98.565.323 54.929 46.189 60.776 46.189 60.776h119.421z" fill="#8f5a46"></path><path d="M336.055 134.577c-33.38-20.431-33-43.077-33-43.077h-74.607c17.095 0 33.319 7.965 43.416 21.76 4.873 6.657 12.44 14.124 24.191 21.317 30.671 18.773 38.304 42.595 23.574 71.558-4.74 9.32-6.906 19.736-5.934 30.146l7.275 77.902c.213 2.281.293 4.579.208 6.868a103.249 103.249 0 01-.99 11.095c-3.869 26.451-26.829 45.907-53.561 45.907h58.239s34.359-5.848 34.682-60.776l-7.494-98.565C376.055 184 371.056 156 336.055 134.577z" fill="#7d4f3d"></path><path d="M87.267 504.5V378.052c0-33.566 27.271-60.776 60.912-60.776h117.018c33.641 0 60.912 27.21 60.912 60.776V504.5" fill="#aad667"></path><path d="M265.197 317.276h-40c33.641 0 60.912 27.211 60.912 60.776V504.5h40V378.052c0-33.565-27.272-60.776-60.912-60.776z" fill="#99c94f"></path><path d="M87.267 504.5V378.052c0-33.566 27.271-60.776 60.912-60.776h117.018c33.641 0 60.912 27.21 60.912 60.776V504.5" fill="none"></path><path d="M207.554 338.8c-51.59 0-59.375-21.524-59.375-21.524h19.662c8.62-1.043 16.523-7.126 16.523-16.468v-37.141h44.648v37.141c0 9.255 7.949 15.357 16.523 16.468h19.662s-9.315 21.524-57.643 21.524z" fill="#fed5b7"></path><path d="M306.306 196.886H107.07c-9.363 0-16.954-7.59-16.954-16.954v-11.291c0-9.363 7.59-16.954 16.954-16.954h199.236c9.363 0 16.954 7.59 16.954 16.954v11.291c-.001 9.363-7.591 16.954-16.954 16.954z" fill="#febc8c"></path><path d="M206.688 276.683c-47.773 0-86.5-38.727-86.5-86.499V59.676h172.999v130.508c0 47.772-38.727 86.499-86.499 86.499z" fill="#fed5b7"></path><path d="M253.187 59.676v130.508c0 40.885-28.375 75.121-66.5 84.15a86.664 86.664 0 0020 2.35c47.772 0 86.499-38.727 86.499-86.5V59.676z" fill="#fcc8a2"></path><g fill="#8f5a46"><path d="M253.542 391.313h-32.208L243.67 313.6a8 8 0 017.689-5.79h15.56c5.32 0 9.158 5.097 7.689 10.21zM159.833 391.313h32.208L169.705 313.6a8 8 0 00-7.689-5.79h-15.56c-5.32 0-9.158 5.097-7.689 10.21z"></path></g><g><path d="M130.125 504.5v-72.017l30-60.423h93.126l30 60.423V504.5z" fill="#fcd59f"></path></g><path d="M251.448 488.856h-89.521V438.28l44.761-19.642 44.76 19.642z" fill="#8f5a46"></path><g><path d="M303.078 92.5h-194v-8.92c0-42.018 34.062-76.08 76.08-76.08h41.84c42.018 0 76.08 34.062 76.08 76.08z" fill="#6d788a"></path><path d="M226.998 7.5h-40c42.018 0 76.08 34.062 76.08 76.08v8.92h40v-8.92c0-42.018-34.062-76.08-76.08-76.08z" fill="#636d7d"></path><path d="M109.078 92.5h194l-13.915 18.253a60.507 60.507 0 01-48.12 23.824h-71.039a60.505 60.505 0 01-49.614-25.873z" fill="#97a6bf"></path></g><g><path d="M388.492 436.31h28v68.19h-28z" fill="#e8b266"></path><path d="M360.605 318.946V200.36l-13.057-18.59-13.057 18.59v141.224c0 20.007 16.219 36.226 36.226 36.226 9.816 0 17.774 7.958 17.774 17.774v40.725h28v-40.521c0-9.929 8.049-17.979 17.979-17.979 20.007 0 36.226-16.219 36.226-36.226V200.36l-13.057-18.59-13.057 18.59v118.585c0 7.961-6.454 14.415-14.415 14.415h-.204c-7.961 0-14.415-6.454-14.415-14.415V200.36l-13.057-18.59-13.057 18.59v118.585c0 7.961-6.454 14.415-14.415 14.415-7.96 0-14.414-6.453-14.414-14.414z" fill="#cad4e6"></path><path d="M457.64 181.77l-13.057 18.59v118.585c0 7.961-6.454 14.415-14.415 14.415h-.204c-7.961 0-14.415-6.454-14.415-14.415l-.102 22.923c0 20.007-16.969 35.941-36.976 35.941-1.337 0-2.635.157-3.889.434 7.956 1.766 13.91 8.853 13.91 17.341v40.725h28v-40.521c0-9.929 8.049-17.979 17.979-17.979 20.007 0 36.226-16.219 36.226-36.226V200.36z" fill="#bac5d9"></path></g><g fill="#060606"><path d="M222.297 213.396c-8.608 8.567-22.612 8.567-31.219 0-6.872-6.843-17.454 3.79-10.582 10.631 7.222 7.189 16.705 10.782 26.191 10.782 9.484 0 18.971-3.595 26.191-10.782 6.874-6.841-3.709-17.474-10.581-10.631zM254.462 431.412l-44.76-19.642a7.498 7.498 0 00-6.027 0l-44.761 19.642a7.5 7.5 0 00-4.486 6.868v50.576a7.5 7.5 0 007.5 7.5h89.521a7.5 7.5 0 007.5-7.5V438.28a7.503 7.503 0 00-4.487-6.868zm-10.514 49.944h-74.521v-38.177l37.261-16.351 37.26 16.351z"></path><path d="M476.834 196.05l-13.057-18.59c-4.092-4.253-8.184-4.253-12.275 0l-13.057 18.59a7.497 7.497 0 00-1.362 4.311v67.325c0 9.697 15 9.697 15 0v-64.954l5.557-7.912 5.557 7.912v138.854c0 15.839-12.887 28.726-28.726 28.726-14.049 0-25.479 11.43-25.479 25.479v33.021h-13v-33.226c0-13.936-11.338-25.274-25.274-25.274-15.648 0-28.726-12.946-28.726-28.726V202.731l5.557-7.912 5.557 7.912v116.215c0 28.261 43.83 28.261 43.83 0V202.731l5.557-7.912 5.557 7.912v116.215c0 28.032 44.034 28.459 44.034 0v-11.289c0-9.697-15-9.697-15 0v11.289c0 8.719-14.034 9.117-14.034 0V200.36a7.507 7.507 0 00-1.362-4.311l-13.057-18.59c-4.092-4.253-8.184-4.253-12.275 0l-13.057 18.59a7.497 7.497 0 00-1.362 4.311v118.585c0 8.938-13.83 8.938-13.83 0V205.808c17.699-39.024-5.421-63.726-28.135-77.628-15.568-9.529-31.588-24.789-29.393-44.6 0-46.086-37.494-83.58-83.58-83.58h-41.84a83.516 83.516 0 00-42.148 11.415c-8.369 4.898-.794 17.843 7.576 12.946A68.501 68.501 0 01185.158 15h41.84c37.887 0 69.253 32.207 68.58 70h-179c-.21-12.402 2.906-24.76 9.092-35.524 4.832-8.408-8.172-15.881-13.005-7.475-8.768 15.255-11.349 32.175-11.087 49.517-.018.904-.763 19.124-29.416 36.661-18.822 11.522-30.047 25.321-33.365 41.014-3.429 16.225 1.655 34.32 15.112 53.783 12.538 18.133 6.609 27.774-3.214 43.747-7.685 12.497-17.25 28.049-17.117 50.596.186 31.517 14.414 48.403 26.318 57.018 7.385 5.345 14.784 8.199 19.871 9.679V504.5c0 9.697 15 9.697 15 0V378.052c0-23.381 16.177-44.798 38.728-51.228l14.928 51.939-25.016 50.384a7.496 7.496 0 00-.782 3.335V504.5c0 9.697 15 9.697 15 0v-70.258l27.15-54.682h83.827l27.15 54.682V504.5c0 9.697 15 9.697 15 0v-72.017a7.506 7.506 0 00-.782-3.335l-25.016-50.384 14.928-51.939a53.52 53.52 0 0125.749 16.416 53.176 53.176 0 0112.979 34.812V504.5c0 9.697 15 9.697 15 0V383.111c3.202-1.347 7.042-3.389 11.016-6.463a43.498 43.498 0 0026.094 8.662c5.665 0 10.274 4.609 10.274 10.274V504.5c0 9.697 15 9.697 15 0v-60.69h13v60.69c0 9.697 15 9.697 15 0V395.789c0-5.778 4.7-10.479 10.479-10.479 24.11 0 43.726-19.615 43.726-43.726V200.36a7.519 7.519 0 00-1.365-4.31zM192.155 364.56l-5.634-19.602c13.282 1.814 27.023 1.916 40.31.082l-5.61 19.52zm41.569-43.501l-2.29 7.968c-15.914 3.397-33.612 3.228-49.507-.055l-2.26-7.864c7.502-4.323 12.198-11.827 12.198-20.299v-17.797a94.496 94.496 0 0029.648 0v17.797c-.001 8.42 4.698 15.903 12.211 20.25zm-27.036-51.875c-43.561 0-79-35.439-79-79v-62.889a68.038 68.038 0 0042.316 14.782h71.04c16.448 0 32.369-6.093 44.644-16.733v64.839c-.001 43.562-35.44 79.001-79 79.001zm-99.618-79.798c-5.213 0-9.454-4.241-9.454-9.454v-11.291c0-5.213 4.241-9.454 9.454-9.454h5.619v30.198h-5.619zm193.617-30.198h5.618c5.213 0 9.454 4.241 9.454 9.454v11.291c0 5.213-4.241 9.454-9.454 9.454h-5.618zM287.93 100l-4.731 6.206c-9.962 13.069-25.721 20.871-42.154 20.871h-71.04a53.039 53.039 0 01-43.464-22.666L123.46 100zM48.578 317.232c-.107-18.257 7.519-30.658 14.894-42.65 10.265-16.692 20.88-33.952 2.775-60.136-11.019-15.937-15.317-30.118-12.774-42.15 2.431-11.5 11.354-22.039 26.521-31.321 16.86-10.319 26.486-21.902 31.591-31.781l1.103 1.581v33.414h-5.619c-13.484 0-24.454 10.97-24.454 24.454v11.291c0 13.484 10.97 24.454 24.454 24.454h6.69c5.344 35.115 30.189 63.905 63.103 74.946v21.477c0 2.388-1.002 4.276-2.477 5.7-2.875-3.801-7.425-6.198-12.371-6.198h-15.56c-6.696 0-13.246 5.068-14.971 11.516-26.406 6.613-47.205 29.582-51.039 56.676-11.518-4.279-31.663-16.695-31.866-51.273zm111.546 47.328c-.059 0-.115.011-.174.012l-13.927-48.457-.019-.066-.029-.101c-.022-.078-.069-.239.081-.438s.319-.199.4-.199h15.56c.222 0 .419.149.481.362l14.051 48.888h-16.424zm76.704 0l14.051-48.889a.503.503 0 01.48-.361h15.56c.081 0 .25 0 .4.2.149.199.104.36.081.438l-.018.063c-.011.039-.024.078-.034.117l-13.924 48.444c-.058-.001-.115-.012-.174-.012zm80.14-31.141a68.516 68.516 0 00-35.076-21.587c-1.723-6.451-8.275-11.522-14.973-11.522h-15.56c-4.931 0-9.469 2.383-12.345 6.165-1.491-1.426-2.502-3.304-2.502-5.667v-21.476c32.915-11.04 57.76-39.831 63.104-74.946h6.69c13.484 0 24.454-10.97 24.454-24.454v-11.291c0-13.484-10.97-24.454-24.454-24.454h-5.618v-34.776c6.108 11.901 16.678 22.519 31.453 31.562 20.518 12.558 29.288 26.786 26.802 43.969l-5.256-7.483c-4.092-4.253-8.184-4.253-12.275 0l-13.057 18.59a7.497 7.497 0 00-1.362 4.311v141.224c0 3.269.372 6.451 1.056 9.517a68.202 68.202 0 00-11.081-17.682zm17.276 32.244c-.541.383-1.075.743-1.596 1.071-.354-2.1-.801-4.18-1.348-6.231a43.78 43.78 0 002.944 5.16z"></path></g></svg> 