<?xml version="1.0" encoding="UTF-8"?> <svg xmlns="http://www.w3.org/2000/svg" height="512" width="512"><path d="M394.07 477.624c16.243 16.243 69.067 35.304 81.597 22.774 12.663-12.663-6.531-65.353-22.774-81.597M117.93 477.624c-16.243 16.243-69.067 35.304-81.597 22.774-12.663-12.663 6.531-65.353 22.774-81.597" fill="#e4936b"></path><path d="M442.09 142.87c2.06-4.421 3.188-9.166 3.188-14.109 0-23.812-25.938-43.116-57.934-43.116-3.952 0-7.81.297-11.539.858C374.265 42.678 326.064 7.5 266.806 7.5c-41.518 0-77.615 17.269-96.037 42.68C108.335 54.171 59.33 93.147 59.33 140.647c0 .743.014 1.484.038 2.223z" fill="#ce9875"></path><path d="M387.344 85.644c-3.952 0-7.81.297-11.539.858-1.54-43.825-49.741-79.003-108.999-79.003-26.159 0-50.161 6.86-68.951 18.288 1.191-.029 2.386-.046 3.586-.046 54.208 0 99.163 29.438 107.611 68.004 1.314 5.997 6.67 10.15 12.809 10.141h.119c30.122 0 54.867 17.111 57.663 38.984h62.448c2.06-4.421 3.188-9.166 3.188-14.109-.001-23.813-25.939-43.117-57.935-43.117z" fill="#c6865c"></path><path d="M454.384 156.247H57.616c-21.721 97.207-24.018 224.668-6.165 325.941 135.147 23.282 273.949 23.282 409.097 0 17.854-101.273 15.557-228.734-6.164-325.941z" fill="#eaaa89"></path><path d="M454.384 156.247h-64.245c15.92 77.21 20.709 170.664 14.065 256.637-2.421 31.32-27.473 56.21-58.8 58.536a1207.588 1207.588 0 01-237.885-5.84c-29.805-3.696-58.284-39.192-66.154-70.461 1.888 30.199 5.244 59.597 10.087 87.069 128.603 22.154 260.515 23.227 389.438 3.218a1206.6 1206.6 0 0016.026-2.608c1.253-.206 2.467-.409 3.632-.61 17.854-101.273 15.557-228.734-6.164-325.941z" fill="#e4936b"></path><path d="M466.991 173.953H45.009c-12.237 0-22.157-9.92-22.157-22.157s9.92-22.157 22.157-22.157h421.983c12.237 0 22.157 9.92 22.157 22.157-.001 12.238-9.921 22.157-22.158 22.157z" fill="#e4936b"></path><path d="M466.991 129.64h-65.365c12.237 0 22.157 9.92 22.157 22.156 0 12.237-9.92 22.156-22.157 22.156h65.365c12.237 0 22.157-9.92 22.157-22.156s-9.92-22.156-22.157-22.156z" fill="#e27d47"></path><g><circle cx="256" cy="327.948" fill="#f2f9ff" r="106.803"></circle><path d="M257.706 279.111a2.076 2.076 0 00-3.412 0c-8.254 11.902-41.907 66.005 1.635 100.873h.141c43.543-34.869 9.89-88.971 1.636-100.873z" fill="#b5e245"></path><path d="M192.314 318.182a1.811 1.811 0 012.105-2.105c11.85 2.145 61.578 13.704 61.582 56.66v6.561l-.458.095c-48.365 5.35-60.979-48.779-63.229-61.211z" fill="#c6e873"></path><path d="M319.686 318.182a1.811 1.811 0 00-2.105-2.105c-11.85 2.145-61.578 13.704-61.582 56.66v6.561l.458.095c48.365 5.35 60.979-48.779 63.229-61.211z" fill="#c6e873"></path><path d="M349.731 379.18H162.269c18.139 33.115 53.311 55.571 93.731 55.571s75.593-22.456 93.731-55.571z" fill="#c6865c"></path></g><g><path d="M496.647 151.796c0-16.352-13.303-29.655-29.655-29.655H452.2c-4.208-24.791-31.678-43.997-64.855-43.997-1.599 0-3.2.045-4.796.135-1.79-11.621-6.577-22.922-14.061-33.072a7.498 7.498 0 00-10.486-1.585 7.498 7.498 0 00-1.585 10.486c7.489 10.155 11.49 21.142 11.895 32.657.158 4.482 4.193 7.822 8.61 7.152a70.252 70.252 0 0110.423-.774c24.606 0 45.14 12.512 49.547 28.998H69.713C80.634 87.374 121.6 60.837 171.248 57.663a7.5 7.5 0 005.593-3.082c17.699-24.416 52.173-39.583 89.966-39.583 23.869 0 47.078 6.17 65.354 17.374a7.497 7.497 0 0010.312-2.473A7.497 7.497 0 00340 19.587C319.398 6.956 293.404 0 266.807 0c-41.075 0-78.99 16.376-99.971 42.953-27.907 2.365-54.325 11.664-74.721 26.355-19.651 14.154-32.956 32.725-38 52.834h-9.107c-16.352 0-29.655 13.303-29.655 29.655 0 16.328 13.263 29.614 29.581 29.654-13.991 78.335-16.738 173.468-7.307 257.021-9.216 19.558-20.101 53.724-6.597 67.229 14.846 14.846 54.232-.127 70.803-8.38a1214.66 1214.66 0 00308.337 0c11.493 5.724 33.957 14.68 51.6 14.679 7.795-.001 14.652-1.75 19.202-6.299 13.505-13.505 2.619-47.672-6.597-67.23 9.43-83.553 6.683-178.685-7.307-257.02 16.316-.041 29.579-13.327 29.579-29.655zm-26.283 343.298c-4.478 4.48-29.696 1.353-55.361-12.145a7.491 7.491 0 00-4.458-.8 1199.61 1199.61 0 01-309.092 0c-1.535-.2-3.09.08-4.458.8-25.664 13.498-50.883 16.622-55.361 12.145-4.129-4.129-2.122-26.447 10.42-52.022a7.493 7.493 0 00.717-4.164c-9.674-83.641-6.883-179.334 7.402-257.456h391.651c14.285 78.122 17.076 173.815 7.402 257.456a7.493 7.493 0 00.717 4.164c12.544 25.575 14.551 47.894 10.421 52.022zm-3.372-328.64H45.009c-8.082 0-14.657-6.576-14.657-14.658s6.575-14.657 14.657-14.657h421.983c8.082 0 14.657 6.575 14.657 14.657-.001 8.083-6.575 14.658-14.657 14.658z"></path><path d="M362.77 335.971a7.5 7.5 0 00-8.497 6.347 98.662 98.662 0 01-9.103 29.362h-43.541c13.822-13.273 22.103-33.749 25.437-52.161 1.157-6.388-4.425-11.977-10.819-10.822-11.069 2.004-22.391 5.615-32.535 10.984-4.138-20.408-14.83-37.616-19.843-44.844-3.806-5.488-11.932-5.487-15.737 0-5.012 7.227-15.704 24.436-19.843 44.844-10.145-5.369-21.468-8.98-32.539-10.985-6.383-1.154-11.973 4.433-10.815 10.821 3.311 18.294 11.557 38.834 25.437 52.163h-43.541a98.662 98.662 0 01-9.103-29.362c-.594-4.098-4.406-6.932-8.497-6.347a7.5 7.5 0 00-6.347 8.497 113.735 113.735 0 0012.742 38.183c.071.135.149.266.228.396A114.272 114.272 0 00256 442.25c41.491 0 79.914-22.48 100.147-59.202.079-.13.157-.261.228-.396a113.76 113.76 0 0012.742-38.182 7.502 7.502 0 00-6.347-8.499zm-52.439-10.556c-4.132 15.029-14.996 42.107-40.163 46.266h-6.635c.587-25.376 22.43-39.635 46.798-46.266zM256 290.373c5.144 8.711 12.197 23.037 13.971 38.359-5.555 4.561-10.339 9.878-13.971 15.997-3.632-6.119-8.416-11.436-13.971-15.996 1.773-15.323 8.827-29.649 13.971-38.36zm-54.331 35.042c24.377 6.633 46.211 20.898 46.798 46.266h-6.635c-25.164-4.159-36.03-31.235-40.163-46.266zM256 427.251a99.252 99.252 0 01-80.074-40.572h160.148A99.25 99.25 0 01256 427.251z"></path><path d="M149.629 315.685c4.066.759 7.987-1.93 8.743-6.003 8.726-46.956 49.785-81.037 97.628-81.037 47.844 0 88.903 34.082 97.628 81.038a7.5 7.5 0 0014.747-2.74c-10.046-54.06-57.306-93.296-112.375-93.296-55.068 0-102.328 39.236-112.375 93.295a7.5 7.5 0 006.004 8.743z"></path></g></svg> 