<?xml version="1.0" encoding="UTF-8"?> <svg xmlns="http://www.w3.org/2000/svg" viewBox="0 0 512 512"><path d="M491.305 351.039c4.871-8.212 4.654-18.885-1.39-27.033-6.045-8.149-16.195-11.451-25.468-9.174-2.364-9.251-10.062-16.644-20.098-18.132-10.036-1.488-19.549 3.354-24.494 11.522-8.212-4.871-18.885-4.654-27.033 1.39a24.772 24.772 0 00-2.171 1.836 24.188 24.188 0 00-1.896 1.965c-.394.463-.769.938-1.124 1.425a24.496 24.496 0 00-3.981 20.242c-9.251 2.364-16.644 10.062-18.132 20.098-1.488 10.036 3.355 19.549 11.522 24.494-4.871 8.212-4.655 18.885 1.39 27.033 6.045 8.149 16.195 11.451 25.466 9.173a24.447 24.447 0 003.687 8.005c3.717 5.29 9.512 9.104 16.411 10.127 10.036 1.488 19.549-3.354 24.494-11.522 8.212 4.871 18.884 4.654 27.033-1.39 8.149-6.045 11.451-16.195 9.173-25.466 9.251-2.364 16.644-10.062 18.133-20.099 1.487-10.036-3.354-19.549-11.522-24.494z" fill="#ccc"></path><path d="M311.541 331.004H204.94c-38.608 0-69.907 31.298-69.907 69.907v102.613h246.413V400.911c.002-38.609-31.296-69.907-69.905-69.907z" fill="#90bc42"></path><g fill="#e0b394"><path d="M307.429 308.274v62.797c0 27.163-22.025 49.188-49.188 49.188-27.172 0-49.188-22.025-49.188-49.188v-62.797h98.376zM139.083 235.457c-14.016-.622-25.173-12.185-25.173-26.348 0-14.559 11.801-26.371 26.371-26.371 1.311 0 2.6.09 3.866.283l-5.064 52.436zM377.381 235.457c14.016-.622 25.184-12.185 25.184-26.348 0-14.559-11.812-26.371-26.382-26.371-1.311 0-2.611.102-3.866.283l5.064 52.436z"></path></g><path d="M248.013 331.004H204.94c-38.608 0-69.907 31.298-69.907 69.907v102.613h43.073V400.911c.001-38.609 31.299-69.907 69.907-69.907z" fill="#83a538"></path><path d="M220.088 349.445l-46.399-33.711a85.552 85.552 0 01-34.869-77.44l8.048-83.281c5.543-57.359 53.744-101.127 111.37-101.127 57.626 0 105.827 43.768 111.37 101.127l8.048 83.281a85.548 85.548 0 01-34.869 77.44l-46.399 33.711c-22.749 16.527-53.552 16.527-76.3 0z" fill="#f7cba4"></path><path d="M167.694 254.706a51.646 51.646 0 0012.015 36.284l48.495 59.591c2.532 3.018 5.403 5.55 8.511 7.573a64.5 64.5 0 01-16.627-8.715l-46.4-33.707a85.545 85.545 0 01-34.86-77.439l8.037-83.283c5.493-56.799 52.809-100.272 109.699-101.097-35.04.848-74.719 33.876-76.787 69.052l-12.083 131.741z" fill="#e0b394"></path><path d="M375.146 123.873a605.119 605.119 0 00-13.858-1.707c-30.53-3.448-65.661-5.403-103.053-5.403s-72.534 1.955-103.064 5.403a599.578 599.578 0 00-13.858 1.707c9.574-52.708 55.624-91.783 110.072-91.783h13.7c54.449 0 100.487 39.076 110.061 91.783z" fill="#f9c573"></path><path d="M251.386 32.091h2.114c-36.657 0-67.809 37.143-75.472 87.85a727.827 727.827 0 00-22.855 2.227 599.578 599.578 0 00-13.858 1.707c9.573-52.709 55.622-91.784 110.071-91.784z" fill="#e2af66"></path><path d="M471.01 159.988c0 13.112-28.744 24.867-74.116 32.802h-.011a26.255 26.255 0 00-20.696-10.049c-1.311 0-2.611.102-3.866.283h-.023l-2.702-28.01a111.727 111.727 0 00-8.308-32.848c4.736.531 9.359 1.096 13.858 1.707 57.749 7.721 95.864 21.013 95.864 36.115z" fill="#f9c573"></path><path d="M155.171 122.167a111.727 111.727 0 00-8.308 32.848l-2.713 28.01a25.751 25.751 0 00-3.866-.283c-8.41 0-15.893 3.934-20.708 10.06l-.011-.011c-45.372-7.935-74.105-19.69-74.105-32.802 0-15.101 38.104-28.394 95.852-36.114 4.5-.612 9.123-1.177 13.859-1.708z" fill="#e2af66"></path><path fill="#f95428" d="M81.418 388.021h96.644v115.498H81.418z"></path><path fill="#e54728" d="M81.418 388.021h34.649v115.498H81.418z"></path><circle cx="434.173" cy="365.358" r="30.802" fill="#fcea81"></circle><g fill="#90bc42"><path d="M495.611 8.478h-16.644c-24.518 0-44.394 19.876-44.394 44.394v16.644h16.644c24.518 0 44.394-19.876 44.394-44.394V8.478zM65.538 30.287l-2.77 16.411c-4.082 24.176 12.208 47.084 36.383 51.166l16.411 2.77 2.77-16.411c4.082-24.176-12.208-47.084-36.383-51.166l-16.411-2.77zM54.85 281.623l9.529 6.974c14.036 10.274 33.745 7.223 44.019-6.815l6.974-9.529-9.529-6.974c-14.036-10.274-33.745-7.223-44.019 6.815l-6.974 9.529z"></path></g><path d="M377.644 238.297a85.544 85.544 0 01-34.86 77.439l-46.4 33.707c-22.754 16.526-53.555 16.526-76.298 0l-46.4-33.707a85.528 85.528 0 01-34.871-77.439l.271-2.837 3.798-39.347.69.068a95.036 95.036 0 0126.925 54.109l3.131 22.482c.791 5.708 5.731 9.936 11.495 9.811.305-.011.61-.011.904-.011a40.944 40.944 0 0126.823 9.958c13.044-8.557 28.62-13.553 45.372-13.553 17.091 0 32.972 5.188 46.163 14.05 7.279-6.499 16.887-10.456 27.411-10.456h.113c5.765.011 10.716-4.103 11.507-9.823l3.12-22.46a95.027 95.027 0 0126.925-54.109l.113-.011 3.798 39.29.27 2.839z" fill="#ccc"></path><path d="M207.687 208.177a8.478 8.478 0 00-8.478 8.478v13.559c0 4.682 3.795 8.478 8.478 8.478s8.478-3.796 8.478-8.478v-13.559a8.478 8.478 0 00-8.478-8.478zM294.935 189.87a18.812 18.812 0 0113.389-5.545c5.058 0 9.812 1.969 13.388 5.545a8.45 8.45 0 005.995 2.483 8.447 8.447 0 005.994-2.483 8.475 8.475 0 00.001-11.988c-6.779-6.779-15.791-10.511-25.377-10.511-9.585 0-18.599 3.732-25.376 10.511a8.475 8.475 0 00-.001 11.988 8.474 8.474 0 0011.987 0zM207.686 167.37c-9.585 0-18.597 3.733-25.376 10.511a8.475 8.475 0 00.001 11.988 8.475 8.475 0 0011.988 0 18.804 18.804 0 0113.387-5.545c5.058 0 9.812 1.969 13.388 5.545a8.45 8.45 0 005.995 2.483 8.447 8.447 0 005.994-2.483 8.475 8.475 0 00.001-11.988c-6.78-6.778-15.792-10.511-25.378-10.511zM308.324 208.177a8.478 8.478 0 00-8.478 8.478v13.559c0 4.682 3.795 8.478 8.478 8.478s8.478-3.796 8.478-8.478v-13.559a8.478 8.478 0 00-8.478-8.478zM355.424 336.006a8.481 8.481 0 00-11.647 2.847c-2.43 4.001-1.154 9.216 2.847 11.646 16.351 9.927 26.114 27.247 26.114 46.331v98.215h-22.607v-123.73c0-4.682-3.795-8.478-8.478-8.478s-8.478 3.796-8.478 8.478v123.73H204.958a8.478 8.478 0 00-8.478 8.478 8.478 8.478 0 008.478 8.478h176.258a8.478 8.478 0 008.478-8.478V396.83c-.002-25.058-12.813-47.796-34.27-60.824z"></path><path d="M316.364 370.38c0-4.682-3.795-8.478-8.478-8.478s-8.478 3.796-8.478 8.478c0 22.828-18.573 41.401-41.401 41.401s-41.401-18.573-41.401-41.401c0-4.682-3.795-8.478-8.478-8.478s-8.478 3.796-8.478 8.478c0 32.177 26.179 58.356 58.356 58.356s58.358-26.177 58.358-58.356zM253.485 244.348v-40.127c0-4.682-3.795-8.478-8.478-8.478s-8.478 3.796-8.478 8.478v40.127c0 11.843 9.634 21.476 21.476 21.476s21.476-9.634 21.476-21.476v-40.127c0-4.682-3.795-8.478-8.478-8.478s-8.478 3.796-8.478 8.478v40.127a4.525 4.525 0 01-4.521 4.521 4.525 4.525 0 01-4.519-4.521z"></path><path d="M106.703 199.049a34.825 34.825 0 00-1.498 10.063 34.779 34.779 0 0024.607 33.329c-1.343 31.29 13.173 61.645 38.659 80.154L214.87 356.3c12.898 9.373 28.01 14.058 43.128 14.057 15.115 0 30.235-4.686 43.136-14.056l46.403-33.707c25.479-18.515 39.99-48.87 38.647-80.15a34.78 34.78 0 0024.629-33.334c0-3.426-.54-6.814-1.524-10.062 47.038-9.39 69.964-22.203 69.964-39.062 0-19.787-32.729-34.479-97.278-43.694-12.696-54.059-60.987-92.681-117.122-92.681h-13.7c-56.14 0-104.437 38.62-117.135 92.681-64.547 9.218-97.266 23.909-97.266 43.694 0 16.861 22.923 29.674 69.951 39.063zm15.457 10.063c0-4.058 1.326-7.881 3.85-11.072a17.755 17.755 0 018.522-5.937l-3.157 32.664a17.848 17.848 0 01-9.215-15.655zm232.881-79.071a103.49 103.49 0 015.886 25.787l3.594 37.19c-14.3 15.451-23.706 35.222-26.611 56.106l-3.121 22.464c-.201 1.454-1.498 2.507-3.102 2.507H331.566a49.57 49.57 0 00-27.946 8.613c-13.848-8.004-29.498-12.208-45.627-12.208a90.928 90.928 0 00-44.872 11.801 49.6 49.6 0 00-28.443-8.192h-.027a2.89 2.89 0 01-2.853-2.506l-3.131-22.481c-2.94-21.132-12.546-41.12-27.135-56.651l3.54-36.641a103.475 103.475 0 015.887-25.79c29.748-3.141 63.17-4.799 97.047-4.799 33.865.001 67.281 1.658 97.035 4.8zM337.57 308.879l-46.4 33.705c-19.844 14.412-46.503 14.412-66.334 0l-46.401-33.707c-21.993-15.973-34.029-42.705-31.413-69.772l2.139-22.129c6.602 10.419 11.004 22.218 12.71 34.483l3.131 22.477c1.363 9.835 9.767 17.128 19.642 17.128a15.628 15.628 0 00.556-.008c.202-.007.404-.006.598-.006a32.624 32.624 0 0121.289 7.902 8.477 8.477 0 0010.184.667 74.044 74.044 0 0140.721-12.164c14.828 0 29.157 4.36 41.435 12.61a8.464 8.464 0 004.726 1.44 8.472 8.472 0 005.648-2.153 32.645 32.645 0 0121.765-8.302h.137c9.984 0 18.528-7.362 19.88-17.135l3.12-22.457c1.663-11.954 5.885-23.466 12.21-33.689l2.063 21.344c2.614 27.057-9.42 53.79-31.406 69.766zm47.053-84.102l-3.158-32.677a17.702 17.702 0 018.52 5.929c.023.029.05.053.072.083 2.486 3.155 3.801 6.956 3.801 11.002a17.846 17.846 0 01-9.235 15.663zm77.677-64.788c0 .124-3.763 12.767-62.599 23.641a34.413 34.413 0 00-19.94-9.157l-1.959-20.273a120.753 120.753 0 00-4.198-21.948l.187.025c72.759 9.726 88.509 24.56 88.509 27.712zM251.154 40.568h13.7c46.037 0 85.924 30.239 98.94 73.38-.596-.069-1.178-.137-1.786-.205-31.613-3.57-67.577-5.456-104.006-5.456-36.435 0-72.404 1.887-104.009 5.456-.61.069-1.195.137-1.793.206 13.02-43.143 52.91-73.381 98.954-73.381zm-108.932 91.706l.17-.023a120.67 120.67 0 00-4.197 21.945l-1.96 20.277a34.502 34.502 0 00-19.938 9.155c-58.828-10.873-62.59-23.517-62.59-23.641 0-3.15 15.748-17.985 88.515-27.713zM177.831 379.548h-11.867v-11.02c0-21.034-17.113-38.148-38.148-38.148-21.033 0-38.147 17.113-38.147 38.148v11.02h-8.478a8.478 8.478 0 00-8.478 8.478v36.146L40.359 347.6l13.766-13.766a8.476 8.476 0 000-11.988 8.477 8.477 0 00-11.989 0L3.143 360.839a8.476 8.476 0 005.995 14.471 8.451 8.451 0 005.995-2.483l12.29-12.29L72.716 467.73v35.791a8.478 8.478 0 008.478 8.478h96.639a8.478 8.478 0 008.478-8.478V388.026a8.481 8.481 0 00-8.48-8.478zm-71.206-11.019c0-11.685 9.506-21.193 21.192-21.193s21.193 9.507 21.193 21.193v11.02h-42.384v-11.02zm62.729 126.516H89.67v-98.542h79.684v98.542zM428.18 404.21c1.944.288 3.875.427 5.784.427 19.132 0 35.942-14.042 38.83-33.522 1.538-10.379-1.057-20.735-7.308-29.162-6.251-8.427-15.409-13.914-25.787-15.453-21.42-3.175-41.438 11.671-44.614 33.094-1.538 10.379 1.057 20.735 7.308 29.162 6.25 8.427 15.408 13.916 25.787 15.454zm-16.323-42.128c1.641-11.072 11.195-19.053 22.069-19.053 1.084 0 2.183.079 3.287.243a22.178 22.178 0 0114.657 8.783 22.178 22.178 0 014.153 16.574c-1.805 12.176-13.17 20.618-25.357 18.81a22.178 22.178 0 01-14.657-8.783 22.178 22.178 0 01-4.152-16.574z"></path><path d="M501.464 348.435a32.836 32.836 0 00-4.972-29.479 32.833 32.833 0 00-26.768-13.312 32.832 32.832 0 00-24.362-17.328 32.828 32.828 0 00-28.341 9.515 32.832 32.832 0 00-29.48 4.973 32.85 32.85 0 00-12.356 34.299 8.478 8.478 0 1016.465-4.046 15.935 15.935 0 015.993-16.636 15.931 15.931 0 0117.657-.908 8.476 8.476 0 0011.577-2.902 15.926 15.926 0 0115.999-7.526 15.928 15.928 0 0113.127 11.844 8.474 8.474 0 0010.237 6.135 15.935 15.935 0 0116.635 5.992 15.93 15.93 0 01.908 17.658 8.478 8.478 0 002.9 11.576 15.93 15.93 0 017.527 15.999 15.93 15.93 0 01-11.845 13.128 8.477 8.477 0 00-6.134 10.236 15.934 15.934 0 01-5.993 16.636 15.931 15.931 0 01-17.656.908 8.48 8.48 0 00-11.576 2.9 15.933 15.933 0 01-16 7.526 15.93 15.93 0 01-13.128-11.845 8.476 8.476 0 00-10.312-6.115 8.476 8.476 0 00-6.115 10.312 32.85 32.85 0 0027.069 24.42c1.629.242 3.255.359 4.868.359a32.81 32.81 0 0016.168-4.265c3.106 13.2 7.174 33.136 7.174 46.988 0 4.682 3.795 8.478 8.478 8.478s8.478-3.796 8.478-8.478c0-15.652-4.366-37.109-7.665-51.093a32.858 32.858 0 0020.319-6.479 32.835 32.835 0 0013.313-26.77 32.839 32.839 0 0017.328-24.362 32.83 32.83 0 00-9.517-28.338zM434.341 77.993h16.644c29.154 0 52.871-23.718 52.871-52.871V8.478A8.478 8.478 0 00495.378 0h-16.644c-29.154 0-52.871 23.718-52.871 52.871v16.644a8.478 8.478 0 008.478 8.478zm8.477-25.122c0-19.805 16.112-35.916 35.916-35.916h8.167v8.167c0 19.805-16.112 35.916-35.916 35.916h-8.167v-8.167zM97.506 106.224l16.412 2.772a8.477 8.477 0 009.772-6.948l2.77-16.411c2.351-13.926-.861-27.933-9.046-39.443-8.183-11.51-20.36-19.144-34.284-21.495l-16.411-2.77a8.478 8.478 0 00-9.772 6.947l-2.772 16.411c-2.351 13.926.861 27.933 9.046 39.443 8.185 11.509 20.361 19.143 34.285 21.494zM70.894 48.11l1.36-8.053 8.051 1.36c9.46 1.597 17.733 6.783 23.292 14.602 5.559 7.819 7.742 17.334 6.144 26.795l-1.359 8.053-8.053-1.36c-9.46-1.597-17.733-6.783-23.292-14.602-5.558-7.82-7.74-17.335-6.143-26.795zM110.617 258.439c-8.615-6.306-19.169-8.88-29.724-7.245-10.552 1.633-19.836 7.278-26.141 15.895l-6.974 9.529a8.477 8.477 0 001.834 11.848l9.529 6.973a39.764 39.764 0 0023.557 7.702c12.323 0 24.49-5.668 32.308-16.35l6.974-9.529a8.478 8.478 0 00-1.833-11.848l-9.53-6.975zm-9.294 18.337c-7.496 10.243-21.927 12.477-32.17 4.98l-2.688-1.967 1.967-2.688a22.865 22.865 0 0115.054-9.153c6.074-.94 12.154.54 17.117 4.172l2.688 1.967-1.968 2.689zM270.511 298.866a38.809 38.809 0 01-25.015 0c-4.425-1.513-9.25.843-10.766 5.274a8.475 8.475 0 005.274 10.766 55.624 55.624 0 0018.001 2.981c6.099 0 12.196-.994 18.001-2.981a8.476 8.476 0 005.274-10.766 8.482 8.482 0 00-10.769-5.274z"></path><circle cx="257.999" cy="456.09" r="8.478"></circle></svg> 