<?xml version="1.0" encoding="UTF-8"?> <svg xmlns="http://www.w3.org/2000/svg" height="512" width="512"><g data-name="Filled outline"><path d="M312 248h120a190.53 190.53 0 0032-105.689V120H280v22.311A190.53 190.53 0 00312 248z" fill="#f27900"></path><path d="M483.84 302.24A39.974 39.974 0 00448 280h-40a8 8 0 01-8-8v-56h-64v56a8 8 0 01-8 8h-47.33a39.989 39.989 0 00-39.19 32.01L200 496h55.72l25.41-85.43A60.473 60.473 0 00295.31 448l.58 48H456a32 32 0 0032-32V320a39.649 39.649 0 00-4.16-17.76z" fill="#fec9a3"></path><path d="M488 320v144a32 32 0 01-32 32H330c51.26-31.94 119.27-91.38 153.84-193.76A39.649 39.649 0 01488 320z" fill="#fec093"></path><path d="M440 448v48H296l-.69-48c-19.79-23.56-18.46-57.28.69-80v-88h24l7.21 25.23a42.421 42.421 0 0081.58 0L416 280h24v88c.66.78 1.3 1.58 1.91 2.39A62.071 62.071 0 01440 448z" fill="#7eb457"></path><path d="M400 248.493V216h-64v32.263a68.743 68.743 0 0027.208 7.582A71.865 71.865 0 00400 248.493z" fill="#feb784"></path><path d="M440 448v48H317.55c40.91-25.69 88.75-65.74 124.36-125.61A62.071 62.071 0 01440 448z" fill="#77ad50"></path><path d="M400.176 380.647a17.018 17.018 0 00-22.915 5.1L320 473.954 325.3 496l22.915-5.1 57.261-88.211a15.649 15.649 0 00-5.3-22.042z" fill="#3d4d63"></path><path d="M416 448l-32-16-40 8v56h112a32 32 0 0032-32v-24zM440 104v64a72 72 0 01-67.75 71.88 73.77 73.77 0 01-9.04-.04c-38.27-2.47-67.21-35.96-67.21-74.31V104a72 72 0 11144 0z" fill="#fec9a3"></path><path d="M440 104v64a72 72 0 01-67.75 71.88A71.99 71.99 0 00411 176V88a71.775 71.775 0 00-21.09-50.91c-.85-.85-1.71-1.67-2.6-2.47A72.033 72.033 0 01440 104z" fill="#fec093"></path><path d="M464 120v32h-24v-32a86.3 86.3 0 01-26.62-20.66 83.273 83.273 0 01-5.38-6.89 86.176 86.176 0 01-11.31-22.39L392 56l-16.02 51.26A121.609 121.609 0 01272 192v-72a96 96 0 01192 0z" fill="#f98500"></path><path d="M464 120v32h-24v-32a86.3 86.3 0 01-26.62-20.66 83.273 83.273 0 01-5.38-6.89V72a71.662 71.662 0 00-15.72-44.9A96.072 96.072 0 01464 120z" fill="#f27900"></path><path d="M440 120h8a24 24 0 0124 24 24 24 0 01-24 24h-8v-48z" fill="#feb784"></path><path d="M296 256v144a24.006 24.006 0 01-24 24H48c-.16 0-.32 0-.47-.01A24 24 0 0124 400V256a24.006 24.006 0 0124-24h224a24.006 24.006 0 0124 24z" fill="#e0e0de"></path><path d="M296 256v144a24.006 24.006 0 01-24 24H48c-.16 0-.32 0-.47-.01 68.89-28.67 170.2-86.57 223.02-191.99H272a24.006 24.006 0 0124 24z" fill="#d6d6d4"></path><path d="M128 456h96v32h-96z" fill="#b0b0ae"></path><path d="M176 488H96l32-128h64z" fill="#bfbfbd"></path><path d="M448 272h-40v-16h24a8 8 0 006.667-3.578 201.307 201.307 0 0024.83-52.584 199.2 199.2 0 006.963-33.071 31.924 31.924 0 001.54-43.9V120a104 104 0 00-208 0v72a8 8 0 008 8c.25 0 .5-.012.755-.036q3.751-.356 7.511-.953a196.81 196.81 0 0013.4 33.464A31.872 31.872 0 00272 224H48a32.036 32.036 0 00-32 32v144a32.036 32.036 0 0032 32h53.754l-13.515 54.06A8 8 0 0096 496h128a8 8 0 008-8v-32a8 8 0 00-8-8h-2.114l3.28-16h41.315l-18.156 61.743 15.35 4.514 17.011-57.851a67.955 67.955 0 006.636 10.462L288 496.12l16-.24-.72-48a8.012 8.012 0 00-1.868-5.02 51.346 51.346 0 01-9.719-17.631A31.789 31.789 0 00304 400V288h9.966l5.541 19.394a50.409 50.409 0 0096.985 0l5.542-19.4H432v80a8 8 0 001.879 5.151 53.789 53.789 0 018.4 55.88l-24.813 2.757-20.026-10.013 14.713-22.7a23.4 23.4 0 003.24-18.135 23.884 23.884 0 00-11.126-15.167 25.112 25.112 0 00-33.694 7.628l-57.279 88.161a7.994 7.994 0 00-1.073 6.218l5.28 22.08a7.992 7.992 0 009.516 5.95l11.052-2.456A7.972 7.972 0 00344 496h112a40.045 40.045 0 0040-40V320a48.055 48.055 0 00-48-48zm-120-32h-11.655a183.3 183.3 0 01-14.759-28.554A81.127 81.127 0 00328 236.937zm11.641-14.883A65.856 65.856 0 01308.891 191a130.2 130.2 0 0074.746-81.339l8.85-28.364A93.889 93.889 0 00432 124.8V168a64.04 64.04 0 01-68.277 63.857 61.077 61.077 0 01-24.082-6.74zM464 144a16.019 16.019 0 01-16 16v-32a16.019 16.019 0 0116 16zm-15.813 51.187A185.116 185.116 0 01427.648 240H408v-2.743A79.4 79.4 0 00447.6 176h.4a32.14 32.14 0 004.916-.378 180.288 180.288 0 01-4.729 19.565zM280 120a87.987 87.987 0 01175.7-7.058A31.987 31.987 0 00448 112h-6.015a77.692 77.692 0 01-37.68-44.463l-4.72-14.08a8 8 0 00-15.222.16l-16 51.276A113.637 113.637 0 01280 182.836zM106.246 480l28-112h48.692l-14 112zM216 480h-30.938l2-16H216zm-10.446-32h-16.492l2-16h17.772zM288 400a16 16 0 01-9.1 14.445 14.81 14.81 0 01-3.31 1.114A15.977 15.977 0 01272 416h-78.938l6.876-55.008A8 8 0 00192 352h-64a8 8 0 00-7.761 6.06L105.754 416H48a16.019 16.019 0 01-16-16V256a16.019 16.019 0 0116-16h224a16.019 16.019 0 0116 16zm16-128v-16a32.009 32.009 0 00-.719-6.734c.677 1.06 1.36 2.116 2.058 3.165A8 8 0 00312 256h16v16zm97.1 31.038a34.234 34.234 0 01-12.319 18.02A34.466 34.466 0 01334.893 303l-4.35-15.224A16.011 16.011 0 00344 272v-27.788a76.212 76.212 0 0018.671 3.61q2.686.178 5.364.178A79.774 79.774 0 00392 244.327V272a16.011 16.011 0 0013.457 15.778zm46.9 62.141V288a32.036 32.036 0 0132 32v104.84l-20.089 2.232A69.7 69.7 0 00448 365.179zm-64.01 16.936a8.97 8.97 0 0112.043-2.622 8 8 0 013.767 5.042 7.534 7.534 0 01-1.073 5.833l-16.777 25.883-23.147 4.63zM328.579 467.4L336 455.978v21.444l-4.771 1.06zM456 480H352v-41.441l30.877-6.176 29.545 14.772a8.006 8.006 0 004.461.8L480 440.938V456a24.027 24.027 0 01-24 24z"></path><path d="M392 176h-16a8 8 0 01-16 0h-16a24 24 0 0048 0zM404 152a12 12 0 10-12-12 12.013 12.013 0 0012 12zM48 256h32v16H48zM96 256h32v16H96zM144 256h32v16h-32zM192 256h32v16h-32zM240 256h32v16h-32z"></path></g></svg> 