<?xml version="1.0" encoding="UTF-8"?> <svg xmlns="http://www.w3.org/2000/svg" width="512" height="512" viewBox="0 0 128 128"><path fill="#bc8871" d="M1.75 109.5h124.5v16.747H1.75z"></path><path d="M16.464 23.123L28.2 54.026a98.682 98.682 0 016.338 30.811l1.056 24.663H64l-3.058-18.873a98.69 98.69 0 00-44.478-67.5zM64 109.5l1.822-21.948A170.954 170.954 0 0197.5 1.747l-3.582 27.227a170.975 170.975 0 00-1.231 31.165L95.25 109.5z" fill="#77bc4d"></path><path d="M48.648 56.48a98.664 98.664 0 0112.294 34.147L64 109.5l1.822-21.948a170.959 170.959 0 016.667-35.072A108.559 108.559 0 0045 9.094l1.789 7.6a108.579 108.579 0 011.859 39.786zM31.309 85.654A121.044 121.044 0 007.456 50.6L1.75 44.76a121.049 121.049 0 0113.45 60.412l-.171 4.328h20.565l-.677-15.8zM126.25 33.938a127.749 127.749 0 00-32.213 52.2L95.25 109.5h23.062l-.4-2.184a127.762 127.762 0 017.037-70.116z" fill="#479838"></path><path d="M49.125 124.5H41.25a1.75 1.75 0 000 3.5h7.875a1.75 1.75 0 100-3.5z"></path><path d="M126.25 107.75h-6.477l-.135-.747a125.868 125.868 0 016.937-69.153l1.3-3.265a1.75 1.75 0 00-2.851-1.9 130.008 130.008 0 00-29.69 44.693l-.9-17.333a169.23 169.23 0 01-.169-13.252 1.75 1.75 0 00-3.5-.092c-.12 4.492-.062 9.043.171 13.526l2.468 47.52H65.9L67.566 87.7a169.254 169.254 0 0127.25-78.971l-2.633 20.017a1.75 1.75 0 103.47.456l3.582-27.227A1.75 1.75 0 0096.08.724a172.729 172.729 0 00-23.717 46.339A110.872 110.872 0 0046.215 7.834 1.751 1.751 0 0043.3 9.495l1.789 7.6a106.308 106.308 0 012.4 34.216A100.435 100.435 0 0017.4 21.646a1.75 1.75 0 00-2.575 2.1l11.735 30.9a96.739 96.739 0 016.209 30.009A122.406 122.406 0 008.708 49.38L3 43.537a1.75 1.75 0 00-2.8 2.027A119.513 119.513 0 0113.454 105.1l-.1 2.646H1.75A1.751 1.751 0 000 109.5v16.747A1.751 1.751 0 001.75 128h25.437a1.75 1.75 0 000-3.5H3.5v-13.25h121v13.25H63.187a1.75 1.75 0 000 3.5h63.063a1.75 1.75 0 001.75-1.75V109.5a1.75 1.75 0 00-1.75-1.75zM48.492 16.288l-.347-1.474a107.369 107.369 0 0122.5 37.7 172.717 172.717 0 00-6.568 34.892l-.638 7.694-.77-4.752a100.368 100.368 0 00-12.213-34.215 109.86 109.86 0 00-1.964-39.845zM7.676 53.359a118.9 118.9 0 0122.036 33.01l3.471 7.74.584 13.641H16.852l.1-2.509a123.036 123.036 0 00-9.276-51.882zm29.6 54.391l-.985-22.987a100.262 100.262 0 00-6.451-31.358l-9.779-25.738a97.029 97.029 0 0139.153 63.24l2.73 16.843zm59.641 0L95.8 86.379A126.636 126.636 0 01121.466 41.5a129.364 129.364 0 00-5.272 66.125l.022.122z"></path></svg> 