<?xml version="1.0" encoding="UTF-8"?> <svg xmlns="http://www.w3.org/2000/svg" height="512" width="512"><path clip-rule="evenodd" d="M112.793 37.491H59.957v29.991c0 10.998 8.986 20.013 19.984 20.013h12.841c10.998 0 20.012-9.014 20.012-20.013V37.491zM282.415 67.481v-29.99h-52.837v29.991c0 10.998 9.014 20.013 20.012 20.013h12.841c10.998-.001 19.984-9.015 19.984-20.014zM452.064 37.491h-52.865v29.991c0 10.998 9.014 20.013 20.012 20.013h12.841c10.998 0 20.012-9.014 20.012-20.013z" fill="#f9f6f6" fill-rule="evenodd"></path><path clip-rule="evenodd" d="M452.064 67.481V47.497h-20.777v19.984c0 9.638-6.916 17.773-16.044 19.616 1.276.255 2.608.397 3.968.397h12.841c10.998 0 20.012-9.014 20.012-20.013zM282.415 67.481V47.497h-20.777v19.984c0 9.638-6.916 17.773-16.015 19.616 1.276.255 2.608.397 3.968.397h12.841c10.997 0 19.983-9.014 19.983-20.013zM112.793 67.481V47.497H92.016v19.984c0 9.638-6.916 17.773-16.044 19.616a20.49 20.49 0 003.968.397h12.841c10.999 0 20.012-9.014 20.012-20.013z" fill="#dddaec" fill-rule="evenodd"></path><path clip-rule="evenodd" d="M483.301 47.497c10.998 0 19.984-9.014 19.984-20.013V12.517c0-2.75-2.268-5.017-5.017-5.017H13.753c-2.778 0-5.046 2.268-5.046 5.017v14.967c0 10.998 9.014 20.013 20.012 20.013z" fill="#9dc6fb" fill-rule="evenodd"></path><path clip-rule="evenodd" d="M483.301 47.497c10.998 0 19.984-9.014 19.984-20.013V12.517c0-2.75-2.268-5.017-5.017-5.017H477.49c2.778 0 5.046 2.268 5.046 5.017v14.967c0 10.998-9.014 20.013-20.012 20.013z" fill="#80b4fb" fill-rule="evenodd"></path><path clip-rule="evenodd" d="M22.03 371.073c-19.36 0-19.36 83.424 0 83.424h467.961c19.332 0 19.332-83.424 0-83.424H22.03z" fill="#407093" fill-rule="evenodd"></path><path clip-rule="evenodd" d="M8.056 400.865c-2.239 23.953 2.438 53.632 13.974 53.632h467.961c11.537 0 16.185-29.679 13.974-53.632-1.502 16.214-6.179 29.792-13.974 29.792H22.03c-7.823 0-12.472-13.578-13.974-29.792zM394.097 454.497v45.128c0 2.665 2.183 4.876 4.875 4.876h52.61c2.664 0 4.875-2.211 4.875-4.876v-45.128z" fill="#365e7d" fill-rule="evenodd"></path><path clip-rule="evenodd" d="M50.178 393.552c0 12.387 16.384 22.45 36.566 22.45s36.538-10.063 36.538-22.45c0-12.416-16.356-22.479-36.538-22.479s-36.566 10.063-36.566 22.479zM219.459 393.552c0 12.387 16.355 22.45 36.538 22.45s36.566-10.063 36.566-22.45c0-12.416-16.384-22.479-36.566-22.479s-36.538 10.063-36.538 22.479zM388.711 393.552c0 12.387 16.355 22.45 36.566 22.45 20.182 0 36.538-10.063 36.538-22.45 0-12.416-16.356-22.479-36.538-22.479-20.21 0-36.566 10.063-36.566 22.479zM55.563 499.624c0 2.665 2.183 4.876 4.875 4.876h52.61c2.665 0 4.875-2.211 4.875-4.876v-45.128h-62.36z" fill="#365e7d" fill-rule="evenodd"></path><path clip-rule="evenodd" d="M123.281 393.552c0-11.31-13.521-20.636-31.18-22.252 5.924 3.997 9.553 9.326 9.553 15.137 0 12.416-16.384 22.479-36.566 22.479-1.814 0-3.628-.085-5.357-.227 6.661 4.507 16.299 7.313 27.014 7.313 20.181 0 36.536-10.063 36.536-22.45zM292.562 393.552c0-11.31-13.549-20.636-31.18-22.252 5.924 3.997 9.524 9.326 9.524 15.137 0 12.416-16.356 22.479-36.566 22.479-1.814 0-3.6-.085-5.357-.227 6.69 4.507 16.327 7.313 27.014 7.313 20.182 0 36.565-10.063 36.565-22.45zM461.815 393.552c0-11.31-13.521-20.636-31.18-22.252 5.924 3.997 9.553 9.326 9.553 15.137 0 12.416-16.384 22.479-36.566 22.479-1.814 0-3.628-.085-5.386-.227 6.69 4.507 16.327 7.313 27.042 7.313 20.182 0 36.537-10.063 36.537-22.45zM117.924 499.624v-45.128H55.563v22.054h37.813v27.95h19.672c2.665 0 4.876-2.211 4.876-4.876zM456.458 499.624v-45.128h-62.361v22.054h37.813v27.95h19.672c2.665 0 4.876-2.211 4.876-4.876z" fill="#2b4d66" fill-rule="evenodd"></path><path clip-rule="evenodd" d="M86.744 333.854l34.78-3.487c18.935-1.928 34.44-19.134 34.44-38.268v-28.743c0-3.345-2.693-5.783-5.981-5.443l-28.799 2.891c-18.963 1.899-34.44 19.134-34.44 38.268v8.901z" fill="#a7e9a6" fill-rule="evenodd"></path><path clip-rule="evenodd" d="M121.524 330.367c18.935-1.928 34.44-19.134 34.44-38.268v-28.743c0-3.345-2.693-5.783-5.981-5.443l-9.071.907v23.131c0 19.134-13.549 32.91-32.484 34.81l-10.091 1.021-11.593 1.162v14.91z" fill="#7fdbae" fill-rule="evenodd"></path><path clip-rule="evenodd" d="M86.744 295.274l-34.809-3.515c-18.935-1.899-34.44-19.134-34.44-38.268v-28.715c0-3.345 2.721-5.783 6.009-5.471l28.799 2.92c18.935 1.899 34.44 19.134 34.44 38.268v34.781z" fill="#a7e9a6" fill-rule="evenodd"></path><path clip-rule="evenodd" d="M51.935 291.759c-18.935-1.899-34.44-19.134-34.44-38.268v-28.715c0-3.345 2.721-5.783 6.009-5.471l9.042.935v23.102c0 19.134 13.549 32.91 32.484 34.838l10.091 1.02 11.622 1.162v14.91z" fill="#7fdbae" fill-rule="evenodd"></path><path clip-rule="evenodd" d="M255.996 333.854l34.809-3.487c18.935-1.928 34.44-19.134 34.44-38.268v-28.743c0-3.345-2.721-5.783-6.009-5.443l-28.799 2.891c-18.935 1.899-34.44 19.134-34.44 38.268v34.782z" fill="#a7e9a6" fill-rule="evenodd"></path><path clip-rule="evenodd" d="M290.805 330.367c18.935-1.928 34.44-19.134 34.44-38.268v-28.743c0-3.345-2.721-5.783-6.009-5.443l-9.042.907v23.131c0 19.134-13.549 32.91-32.484 34.81l-10.091 1.021-11.622 1.162v14.91z" fill="#7fdbae" fill-rule="evenodd"></path><path clip-rule="evenodd" d="M255.996 295.274l-34.78-3.515c-18.935-1.899-34.44-19.134-34.44-38.268v-28.715c0-3.345 2.693-5.783 5.981-5.471l28.799 2.92c18.935 1.899 34.44 19.134 34.44 38.268v8.901z" fill="#a7e9a6" fill-rule="evenodd"></path><path clip-rule="evenodd" d="M221.216 291.759c-18.935-1.899-34.44-19.134-34.44-38.268v-28.715c0-3.345 2.693-5.783 5.981-5.471l9.071.935v23.102c0 19.134 13.549 32.91 32.484 34.838l10.091 1.02 11.593 1.162v14.91z" fill="#7fdbae" fill-rule="evenodd"></path><path clip-rule="evenodd" d="M425.277 333.854l34.78-3.487c18.935-1.928 34.44-19.134 34.44-38.268v-28.743c0-3.345-2.693-5.783-5.981-5.443l-28.799 2.891c-18.963 1.899-34.44 19.134-34.44 38.268v8.901z" fill="#a7e9a6" fill-rule="evenodd"></path><path clip-rule="evenodd" d="M460.058 330.367c18.935-1.928 34.44-19.134 34.44-38.268v-28.743c0-3.345-2.693-5.783-5.981-5.443l-9.071.907v23.131c0 19.134-13.549 32.91-32.484 34.81l-10.091 1.021-11.593 1.162v14.91z" fill="#7fdbae" fill-rule="evenodd"></path><path clip-rule="evenodd" d="M425.277 295.274l-34.809-3.515c-18.935-1.899-34.44-19.134-34.44-38.268v-28.715c0-3.345 2.693-5.783 6.009-5.471l28.799 2.92c18.935 1.899 34.44 19.134 34.44 38.268v34.781z" fill="#a7e9a6" fill-rule="evenodd"></path><path clip-rule="evenodd" d="M390.469 291.759c-18.935-1.899-34.44-19.134-34.44-38.268v-28.715c0-3.345 2.693-5.783 6.009-5.471l9.042.935v23.102c0 19.134 13.549 32.91 32.484 34.838l10.091 1.02 11.622 1.162v14.91z" fill="#7fdbae" fill-rule="evenodd"></path><path d="M28.72 54.997h23.737v12.484c0 15.17 12.329 27.513 27.484 27.513h12.84c15.17 0 27.512-12.342 27.512-27.513V54.997h29.548a7.5 7.5 0 000-15H28.72c-6.899 0-12.512-5.613-12.512-12.513V15h479.577v12.484c0 6.899-5.6 12.513-12.484 12.513H184.48a7.5 7.5 0 000 15h37.598v12.484c0 15.17 12.342 27.513 27.512 27.513h12.84c15.155 0 27.484-12.342 27.484-27.513V54.997h101.785v12.484c0 15.17 12.342 27.513 27.512 27.513h12.84c15.17 0 27.512-12.342 27.512-27.513V54.997H483.3c15.155 0 27.484-12.342 27.484-27.513V12.517C510.785 5.615 505.17 0 498.268 0H13.753C6.836 0 1.208 5.615 1.208 12.517v14.967c0 15.171 12.342 27.513 27.512 27.513zm38.737 0h37.836v12.484c0 6.899-5.613 12.513-12.512 12.513h-12.84c-6.884 0-12.484-5.613-12.484-12.513zm207.458 12.484c0 6.899-5.6 12.513-12.484 12.513h-12.84c-6.899 0-12.512-5.613-12.512-12.513V54.997h37.836zm169.649 0c0 6.899-5.613 12.513-12.512 12.513h-12.84c-6.899 0-12.512-5.613-12.512-12.513V54.997h37.865v12.484zM93.875 118.647a7.5 7.5 0 00-15 0v16.611a7.5 7.5 0 0015 0zM86.375 161.122a7.5 7.5 0 00-7.5 7.5v16.64a7.5 7.5 0 0015 0v-16.64a7.5 7.5 0 00-7.5-7.5zM45.392 103.589l-12.076 11.424a7.5 7.5 0 1010.309 10.897l12.076-11.424a7.5 7.5 0 00.294-10.603 7.5 7.5 0 00-10.603-.294zM116.762 103.876a7.5 7.5 0 00.282 10.603l12.047 11.424a7.478 7.478 0 005.159 2.058 7.5 7.5 0 005.162-12.942l-12.047-11.424a7.5 7.5 0 00-10.603.281zM433.146 118.647a7.5 7.5 0 00-15 0v16.611a7.5 7.5 0 0015 0zM425.646 161.122a7.5 7.5 0 00-7.5 7.5v16.64a7.5 7.5 0 0015 0v-16.64a7.5 7.5 0 00-7.5-7.5zM384.663 103.589l-12.075 11.424a7.5 7.5 0 1010.309 10.897l12.075-11.424c3.009-2.847 3.141-7.594.294-10.603s-7.595-3.142-10.603-.294zM455.999 103.883a7.5 7.5 0 00.294 10.603l12.075 11.424a7.473 7.473 0 005.153 2.052 7.5 7.5 0 005.156-12.949l-12.075-11.424a7.5 7.5 0 00-10.603.294zM263.497 118.647a7.5 7.5 0 00-15 0v16.611a7.5 7.5 0 0015 0zM255.997 161.122a7.5 7.5 0 00-7.5 7.5v16.64a7.5 7.5 0 0015 0v-16.64a7.5 7.5 0 00-7.5-7.5zM215.007 103.595l-12.047 11.424a7.5 7.5 0 1010.321 10.884l12.047-11.424a7.5 7.5 0 10-10.321-10.884zM286.377 103.883a7.5 7.5 0 00.294 10.603l12.076 11.424a7.473 7.473 0 005.153 2.052 7.5 7.5 0 005.156-12.949l-12.076-11.424a7.5 7.5 0 00-10.603.294zM508.031 381.894c-4.679-15.142-12.393-18.321-18.04-18.321h-57.213V340.64l28.04-2.811c22.707-2.312 41.18-22.826 41.18-45.729v-28.743c0-3.72-1.549-7.25-4.249-9.686-2.688-2.424-6.336-3.597-9.981-3.219l-28.798 2.891c-9.94.996-19.068 5.485-26.192 12.141v-4.99c0-22.937-18.479-43.452-41.184-45.729l-28.854-2.925c-3.684-.345-7.327.853-10.002 3.289-2.675 2.435-4.208 5.952-4.208 9.649v28.715c0 22.938 18.479 43.452 41.187 45.73l28.062 2.833v61.518H263.497V340.64l28.068-2.811c22.707-2.312 41.18-22.826 41.18-45.729v-28.743c0-3.712-1.549-7.238-4.25-9.674-2.697-2.432-6.353-3.612-10.008-3.23l-28.799 2.891c-9.939.997-19.068 5.486-26.191 12.143v-4.992c0-22.938-18.479-43.452-41.184-45.729l-28.848-2.925c-3.669-.349-7.301.848-9.974 3.279-2.679 2.437-4.215 5.958-4.215 9.659v28.715c0 22.938 18.479 43.452 41.187 45.73l28.034 2.833v61.518H94.244V340.64l28.04-2.811c22.707-2.312 41.181-22.826 41.181-45.729v-28.743c0-3.72-1.548-7.25-4.249-9.686-2.688-2.424-6.331-3.594-9.982-3.219l-28.798 2.891c-9.94.996-19.068 5.485-26.192 12.141v-4.99c0-22.938-18.479-43.452-41.184-45.729l-28.848-2.925c-3.673-.348-7.319.852-10 3.291-2.68 2.438-4.216 5.954-4.216 9.647v28.715c0 22.938 18.479 43.452 41.187 45.73l28.062 2.833v61.518H22.03c-5.651 0-13.37 3.178-18.055 18.318C1.418 390.156.01 401.127.01 412.786s1.408 22.63 3.965 30.894c4.685 15.14 12.404 18.318 18.055 18.318h26.033v37.628c0 6.824 5.552 12.375 12.375 12.375h52.61c6.824 0 12.375-5.552 12.375-12.375v-37.628h113.593a7.5 7.5 0 000-15H22.259c-2.525-1.597-7.249-13.278-7.249-34.212s4.724-32.615 7.249-34.212h26.144c-3.647 4.384-5.725 9.484-5.725 14.979 0 16.794 19.356 29.95 44.066 29.95 24.694 0 44.038-13.156 44.038-29.95 0-5.495-2.077-10.595-5.722-14.979h92.621c-3.645 4.384-5.722 9.484-5.722 14.979 0 16.794 19.344 29.95 44.038 29.95 24.71 0 44.066-13.156 44.066-29.95 0-5.495-2.079-10.595-5.725-14.979h92.6c-3.647 4.384-5.725 9.484-5.725 14.979 0 16.794 19.356 29.95 44.066 29.95 24.694 0 44.038-13.156 44.038-29.95 0-5.495-2.077-10.595-5.722-14.979h26.163c2.521 1.609 7.234 13.296 7.234 34.212s-4.712 32.603-7.234 34.212H272.04a7.5 7.5 0 000 15h114.557v37.628c0 6.824 5.552 12.375 12.375 12.375h52.609c6.824 0 12.375-5.552 12.375-12.375v-37.628h26.033c5.647 0 13.361-3.179 18.04-18.321 2.553-8.263 3.959-19.233 3.959-30.891s-1.404-22.63-3.957-30.892zm-75.254-82.821c0-15.195 12.679-29.302 27.689-30.806l26.531-2.664v26.496c0 15.17-12.685 29.278-27.688 30.806l-15.428 1.547 19.074-21.085a7.5 7.5 0 00-.531-10.593 7.5 7.5 0 00-10.593.531l-19.054 21.063zm-169.28 0c0-15.193 12.68-29.3 27.689-30.806l26.56-2.666v26.498c0 15.17-12.685 29.278-27.688 30.805l-15.427 1.545 19.072-21.083a7.5 7.5 0 00-.531-10.593 7.5 7.5 0 00-10.593.531l-19.082 21.094zm-169.253 0c0-15.195 12.679-29.302 27.689-30.806l26.532-2.664v26.496c0 15.17-12.685 29.278-27.688 30.806l-15.428 1.547 19.074-21.085a7.5 7.5 0 00-.531-10.593 7.5 7.5 0 00-10.593.531l-19.054 21.063v-15.295zm16.18 162.924V497h-47.36v-35.003zm-61.388-197.24l19.069 21.097-15.421-1.557c-15.009-1.506-27.688-15.613-27.688-30.806v-26.497l26.56 2.693c15.009 1.506 27.688 15.613 27.688 30.805v15.315l-19.08-21.11a7.501 7.501 0 00-11.128 10.06zm37.708 143.745c-16.636 0-29.066-7.893-29.066-14.95 0-5.959 8.83-12.513 21.566-14.426v14.426a7.5 7.5 0 0015 0v-14.425c12.719 1.915 21.538 8.467 21.538 14.425-.001 7.057-12.419 14.95-29.038 14.95zm131.572-143.745l19.07 21.098-15.421-1.558c-15.009-1.506-27.689-15.613-27.689-30.806v-26.494l26.532 2.69c15.009 1.506 27.689 15.613 27.689 30.805v15.285l-19.052-21.079a7.501 7.501 0 00-11.129 10.059zm37.681 143.745c-16.62 0-29.038-7.893-29.038-14.95 0-5.958 8.819-12.511 21.538-14.425v14.425a7.5 7.5 0 0015 0v-14.426c12.736 1.913 21.566 8.467 21.566 14.426 0 7.057-12.431 14.95-29.066 14.95zm131.572-143.745l19.069 21.097-15.421-1.557c-15.009-1.506-27.688-15.613-27.688-30.806v-26.497l26.56 2.693c15.009 1.506 27.688 15.613 27.688 30.805v15.315l-19.08-21.11a7.501 7.501 0 00-11.128 10.06zm37.708 143.745c-16.636 0-29.066-7.893-29.066-14.95 0-5.959 8.83-12.513 21.566-14.426v14.426a7.5 7.5 0 0015 0v-14.425c12.719 1.915 21.538 8.467 21.538 14.425 0 7.057-12.418 14.95-29.038 14.95zM448.958 497h-47.36v-35.003h47.36z"></path></svg> 