<?xml version="1.0" encoding="UTF-8"?> <svg xmlns="http://www.w3.org/2000/svg" viewBox="0 0 511.999 511.999"><g fill="#ff507d"><path d="M361.171 335.434l-79.353 33.378 60.57 135.118 28.706-41.162 49.828 5.958zM91.408 468.726l49.828-5.958 28.705 41.162 60.571-135.118-79.353-33.378z"></path></g><g fill="#d23c69"><path d="M190.11 351.818l-38.951-16.384-59.751 133.292 48.918-5.849 33.081-73.795c5.846 2.684 12.242 4.198 18.821 4.198 2.346 0 4.711-.185 7.03-.55l17.789-2.799 3.139 1.914 10.326-23.033-40.402-16.994zM338.868 388.96c6.852-3.203 12.924-8.049 17.473-14.306l10.58-14.546 4.789-1.159-10.542-23.515-38.951 16.384-40.402 16.994 60.571 135.119 28.707-41.163.91.109-33.135-73.917z"></path></g><path d="M439.176 204.208l-10.616 17.411a19.409 19.409 0 00-2.602 13.124l3.164 20.111a19.412 19.412 0 01-7.759 18.717l-16.455 11.969a19.415 19.415 0 00-7.45 11.133l-4.792 19.8a19.416 19.416 0 01-14.304 14.303l-19.799 4.791a19.41 19.41 0 00-11.134 7.45l-11.966 16.451a19.418 19.418 0 01-18.719 7.759l-20.103-3.164a19.42 19.42 0 00-13.126 2.602l-17.408 10.615a19.412 19.412 0 01-20.214 0l-17.411-10.616a19.409 19.409 0 00-13.124-2.602l-20.111 3.164a19.412 19.412 0 01-18.717-7.759l-11.969-16.455a19.415 19.415 0 00-11.133-7.45l-19.8-4.792a19.416 19.416 0 01-14.303-14.304l-4.791-19.799a19.41 19.41 0 00-7.45-11.134l-16.451-11.966a19.418 19.418 0 01-7.759-18.719l3.164-20.103a19.42 19.42 0 00-2.602-13.126L72.821 204.21a19.412 19.412 0 010-20.214l10.616-17.411a19.409 19.409 0 002.602-13.124l-3.164-20.111a19.412 19.412 0 017.759-18.717l16.455-11.969a19.415 19.415 0 007.45-11.133l4.792-19.8a19.416 19.416 0 0114.304-14.303l19.799-4.791a19.415 19.415 0 0011.135-7.45l11.966-16.451a19.418 19.418 0 0118.719-7.759l20.103 3.164a19.42 19.42 0 0013.126-2.602l17.407-10.615a19.412 19.412 0 0120.214 0l17.411 10.616a19.409 19.409 0 0013.124 2.602l20.111-3.164a19.412 19.412 0 0118.717 7.759l11.969 16.455a19.415 19.415 0 0011.133 7.45l19.8 4.792a19.416 19.416 0 0114.303 14.304l4.791 19.799a19.415 19.415 0 007.45 11.135l16.451 11.966a19.418 19.418 0 017.759 18.719l-3.164 20.103a19.42 19.42 0 002.602 13.126l10.615 17.407a19.418 19.418 0 010 20.215z" fill="#ffc850"></path><path d="M144.115 155.372c0-51.6 19.353-98.66 51.158-134.392l-.02-.003a19.41 19.41 0 00-18.718 7.758L164.57 45.186a19.417 19.417 0 01-11.135 7.45l-19.799 4.791a19.416 19.416 0 00-14.304 14.303l-4.792 19.8a19.41 19.41 0 01-7.45 11.133l-16.456 11.969a19.417 19.417 0 00-7.759 18.717l3.164 20.11a19.42 19.42 0 01-2.602 13.124L72.82 183.992a19.412 19.412 0 000 20.214l10.615 17.407a19.41 19.41 0 012.602 13.126l-3.164 20.105a19.41 19.41 0 007.758 18.718l16.451 11.966a19.417 19.417 0 017.45 11.135l4.791 19.799a19.416 19.416 0 0014.303 14.304l19.8 4.792a19.41 19.41 0 0111.133 7.45l11.968 16.455a19.418 19.418 0 0018.717 7.759l20.11-3.164a19.418 19.418 0 0113.125 2.602l17.411 10.616a19.412 19.412 0 0020.214 0l17.407-10.615a19.41 19.41 0 0113.126-2.602l20.104 3.164a19.41 19.41 0 0018.718-7.758l1.515-2.083c-107.336-4.906-192.859-93.459-192.859-202.01z" fill="#e1a546"></path><circle cx="255.995" cy="194.105" r="137.702" fill="#ffdc64"></circle><path d="M287.087 260.482c-48.781-9.708-87.801-48.749-97.482-97.535-3.092-15.584-3.162-30.729-.793-45.055.897-5.426-5.717-8.775-9.711-4.994-24.706 23.382-38.77 57.882-34.093 95.522 6.207 49.97 46.696 90.461 96.665 96.672 37.643 4.68 72.145-9.385 95.531-34.092 3.78-3.994.432-10.608-4.994-9.711-14.348 2.371-29.517 2.298-45.123-.807z" fill="#ffc850"></path><path d="M255.998 247.79l-46.602 26.086c-4.849 2.714-10.65-1.501-9.567-6.951l10.408-52.383-39.211-36.261c-4.079-3.773-1.863-10.592 3.654-11.246l53.036-6.288 22.369-48.497c2.327-5.045 9.498-5.045 11.825 0l22.369 48.497 53.036 6.288c5.518.654 7.734 7.475 3.654 11.246l-39.211 36.261 10.408 52.383c1.083 5.45-4.718 9.665-9.567 6.951l-46.601-26.086z" fill="#fff"></path><path d="M255.998 116.643l5.201-5.201c-2.756-4.02-8.952-3.879-11.114.807l-22.369 48.497-53.037 6.288c-5.518.654-7.734 7.474-3.654 11.246l39.211 36.261-10.409 52.383c-1.083 5.45 4.718 9.665 9.567 6.951l12.279-6.873 17.793-52.046a17.213 17.213 0 00-2.928-16.422l-3.162-3.891c-2.26-2.782-.905-6.97 2.558-7.898l2.971-.797a17.211 17.211 0 0012.695-15.23l4.398-54.075z" fill="#fffab4"></path><path d="M314.08 78.199c3.976 2.012 8.83.414 10.84-3.563a8.068 8.068 0 00-3.563-10.84c-56.318-28.458-124.159-17.577-168.81 27.075-51.895 51.894-57.089 134.64-12.081 192.474a8.055 8.055 0 006.373 3.114 8.03 8.03 0 004.95-1.702 8.07 8.07 0 001.413-11.323c-40.019-51.422-35.394-125.002 10.757-171.153 39.708-39.712 100.037-49.39 150.121-24.082zM374.946 124.674a8.07 8.07 0 00-3.565 10.84c25.289 50.076 15.606 110.396-24.095 150.096-46.152 46.15-119.731 50.774-171.153 10.757a8.07 8.07 0 00-9.91 12.736c26.344 20.501 57.855 30.586 89.266 30.586 37.548 0 74.952-14.411 103.209-42.668 44.64-44.64 55.526-112.468 27.089-168.781a8.072 8.072 0 00-10.841-3.566zM341.373 96.719a132.458 132.458 0 0111.476 11.475 8.048 8.048 0 006.049 2.725 8.068 8.068 0 006.043-13.41 147.944 147.944 0 00-12.88-12.88 8.067 8.067 0 00-11.388.702 8.064 8.064 0 00.7 11.388z"></path><path d="M446.064 179.794l-10.615-17.407a11.358 11.358 0 01-1.521-7.67l3.164-20.103c1.613-10.245-2.596-20.398-10.982-26.499l-16.451-11.966a11.358 11.358 0 01-4.354-6.506l-4.791-19.799c-2.432-10.057-10.191-17.815-20.247-20.249l-19.8-4.792a11.35 11.35 0 01-6.506-4.354l-11.968-16.455c-6.1-8.386-16.254-12.597-26.496-10.983l-20.11 3.164a11.359 11.359 0 01-7.669-1.521l-17.41-10.618c-8.826-5.382-19.79-5.381-28.616 0l-17.407 10.615a11.354 11.354 0 01-7.67 1.521l-20.105-3.164c-10.242-1.612-20.397 2.597-26.497 10.983l-11.966 16.451a11.36 11.36 0 01-6.507 4.354l-19.799 4.791c-10.055 2.432-17.815 10.191-20.249 20.247l-4.792 19.8a11.35 11.35 0 01-4.354 6.506L85.89 108.108c-8.386 6.099-12.594 16.251-10.983 26.496l3.164 20.111a11.358 11.358 0 01-1.521 7.669l-10.617 17.411c-5.38 8.826-5.38 19.79.001 28.615l10.615 17.407a11.352 11.352 0 011.521 7.67l-3.164 20.105c-1.613 10.244 2.596 20.398 10.982 26.498l16.451 11.966a11.355 11.355 0 014.354 6.506l4.791 19.799c2.432 10.057 10.191 17.815 20.247 20.249l8.268 2.001-55.954 124.814a8.067 8.067 0 008.32 11.312l45.022-5.383 25.936 37.191a8.072 8.072 0 007.373 3.418 8.072 8.072 0 006.608-4.732l57.145-127.479 7.241 4.415c4.413 2.691 9.361 4.036 14.308 4.036s9.895-1.346 14.308-4.036l7.502-4.574 57.217 127.638a8.067 8.067 0 0013.981 1.314l25.936-37.191 45.022 5.383a8.067 8.067 0 008.32-11.312l-55.983-124.883 7.957-1.925c10.055-2.432 17.815-10.191 20.249-20.247l4.792-19.8a11.35 11.35 0 014.354-6.506l16.455-11.968c8.386-6.099 12.594-16.251 10.983-26.496l-3.164-20.111a11.358 11.358 0 011.521-7.669l10.617-17.411c5.381-8.826 5.381-19.791-.001-28.615zM168.408 487.627l-20.554-29.474a8.064 8.064 0 00-7.576-3.396l-35.679 4.266L155.578 345.3a11.284 11.284 0 012.457 2.455l11.968 16.455a27.734 27.734 0 003.808 4.242l-26.833 59.857a8.07 8.07 0 007.357 11.371 8.07 8.07 0 007.367-4.77l26.738-59.644c2.631.361 5.34.355 8.059-.073l20.11-3.164a11.327 11.327 0 013.606.024l-51.807 115.574zm203.644-32.87a8.064 8.064 0 00-7.576 3.396l-20.554 29.474-51.829-115.619a11.359 11.359 0 013.293.024l20.103 3.164c2.829.445 5.648.431 8.379.024l26.758 59.692a8.07 8.07 0 007.367 4.77 8.068 8.068 0 007.357-11.371l-26.935-60.085a27.83 27.83 0 003.571-4.013l11.966-16.451a11.327 11.327 0 012.716-2.645l51.062 113.907-35.678-4.267zm60.235-254.749l-10.617 17.411a27.515 27.515 0 00-3.684 18.578l3.164 20.11a11.3 11.3 0 01-4.534 10.938l-16.456 11.969a27.514 27.514 0 00-10.545 15.76l-4.792 19.8a11.303 11.303 0 01-8.359 8.359l-19.8 4.791a27.512 27.512 0 00-15.762 10.546l-11.966 16.451a11.293 11.293 0 01-10.939 4.533l-20.104-3.164a27.517 27.517 0 00-18.581 3.684l-17.407 10.615a11.307 11.307 0 01-11.812 0l-17.411-10.616a27.51 27.51 0 00-18.579-3.684l-20.111 3.164a11.297 11.297 0 01-10.938-4.534l-11.969-16.455a27.514 27.514 0 00-15.76-10.545l-19.8-4.792a11.301 11.301 0 01-8.359-8.359l-4.791-19.799a27.51 27.51 0 00-10.546-15.763l-16.45-11.967a11.297 11.297 0 01-4.533-10.939l3.164-20.105a27.515 27.515 0 00-3.684-18.58l-10.615-17.409a11.299 11.299 0 010-11.812l10.617-17.411a27.515 27.515 0 003.684-18.578l-3.164-20.11a11.3 11.3 0 014.534-10.938l16.456-11.969a27.514 27.514 0 0010.545-15.76l4.792-19.8a11.303 11.303 0 018.359-8.359l19.8-4.791a27.512 27.512 0 0015.762-10.546l11.966-16.451a11.294 11.294 0 0110.939-4.534l20.105 3.164a27.504 27.504 0 0018.581-3.684l17.407-10.615a11.307 11.307 0 0111.812 0l17.411 10.616a27.502 27.502 0 0018.579 3.685l20.111-3.164a11.305 11.305 0 0110.938 4.534l11.969 16.455a27.514 27.514 0 0015.76 10.545l19.8 4.792a11.301 11.301 0 018.359 8.359l4.791 19.799a27.51 27.51 0 0010.546 15.763l16.451 11.966a11.297 11.297 0 014.533 10.939l-3.164 20.105a27.515 27.515 0 003.684 18.58l10.615 17.409a11.305 11.305 0 01-.002 11.813z"></path><path d="M165.547 184.205l35.895 33.195-9.528 47.954c-1.121 5.646 1.075 11.254 5.732 14.636 2.569 1.866 5.55 2.811 8.55 2.811 2.439 0 4.889-.624 7.14-1.884l42.662-23.879 42.662 23.879c5.023 2.812 11.034 2.457 15.69-.926 4.657-3.383 6.853-8.992 5.731-14.637l-9.528-47.953 35.895-33.195c4.226-3.907 5.746-9.736 3.968-15.21-1.778-5.474-6.433-9.296-12.149-9.974l-48.551-5.757-20.478-44.395c-2.411-5.226-7.484-8.473-13.24-8.473s-10.829 3.247-13.24 8.473l-20.478 44.396-48.551 5.757c-5.716.678-10.372 4.5-12.149 9.974-1.777 5.472-.257 11.301 3.967 15.208zm63.119-15.446a8.071 8.071 0 006.377-4.632l20.955-45.431 20.955 45.431a8.07 8.07 0 006.377 4.632l49.684 5.891-36.733 33.969a8.07 8.07 0 00-2.436 7.496l9.75 49.071-43.658-24.437a8.065 8.065 0 00-7.882 0l-43.658 24.437 9.75-49.071a8.063 8.063 0 00-2.436-7.496L178.98 174.65l49.686-5.891z"></path></svg> 