<?xml version="1.0" encoding="UTF-8"?> <svg xmlns="http://www.w3.org/2000/svg" height="512" viewBox="0 0 64 64" width="512"><path d="M36 48h3.5a2.5 2.5 0 00-2.45 2H28v-6h-4v-4c0-2.21 1.79-4 4-4h8.71A7.975 7.975 0 0034 42v4c0 1.1.9 2 2 2zM48 48c1.1 0 2-.9 2-2v-4c0-2.21-.9-4.21-2.34-5.66a5.96 5.96 0 00-.37-.34H56c2.21 0 4 1.79 4 4v4h-4v6h-9.05c-.1-.49-.34-.93-.68-1.27-.45-.45-1.08-.73-1.77-.73z" fill="#dfb28b"></path><g fill="#b27946"><path d="M22 54V44h6v6h-2c-1.1 0-2.1.45-2.83 1.17C22.45 51.9 22 52.9 22 54zM22 54h6v8h-6zM56 54h6v8h-6zM62 44v10c0-2.21-1.79-4-4-4h-2v-6h4z"></path></g><path d="M37 50.5V54H22c0-1.1.45-2.1 1.17-2.83C23.9 50.45 24.9 50 26 50h11.05c-.03.16-.05.33-.05.5zM62 54H47v-3.5c0-.17-.02-.34-.05-.5H58c2.21 0 4 1.79 4 4z" fill="#d3a06c"></path><path d="M47 54v5.5a2.5 2.5 0 01-5 0v-9a2.5 2.5 0 014.95-.5c.03.16.05.33.05.5z" fill="#838f9b"></path><path d="M42 50.5v9a2.5 2.5 0 01-5 0v-9a2.5 2.5 0 012.5-2.5c.69 0 1.32.28 1.77.73s.73 1.08.73 1.77z" fill="#838f9b"></path><path d="M44.5 48H36c-1.1 0-2-.9-2-2v-4c0-2.39 1.05-4.54 2.71-6 1.41-1.24 3.26-2 5.29-2s3.88.76 5.29 2c.13.11.25.22.37.34A8.014 8.014 0 0150 42v4c0 1.1-.9 2-2 2z" fill="#fcd770"></path><circle cx="42" cy="29" fill="#f0d0b4" r="5"></circle><path d="M6 35h2c0 1.1-.45 2.1-1.17 2.83C6.1 38.55 5.1 39 4 39H2c0-1.1.45-2.1 1.17-2.83C3.9 35.45 4.9 35 6 35zM12 40h2c0 1.1-.45 2.1-1.17 2.83C12.1 43.55 11.1 44 10 44H8c0-1.1.45-2.1 1.17-2.83C9.9 40.45 10.9 40 12 40z" fill="#a0d468"></path><path d="M34 21c0-1.74-1.11-3.21-2.65-3.77a3.972 3.972 0 00.15-6.33c.31-.57.5-1.21.5-1.9 0-2.21-1.79-4-4-4-.81 0-1.56.24-2.19.65A4.997 4.997 0 0021 2c-1.49 0-2.82.67-3.73 1.7A4.024 4.024 0 0014 2c-2.06 0-3.75 1.55-3.98 3.55a3.999 3.999 0 00-5.54 5.35C3.57 11.63 3 12.75 3 14c0 1.33.65 2.51 1.65 3.23A4.015 4.015 0 002 21a4 4 0 003.17 3.91c-.1.35-.17.71-.17 1.09 0 2.21 1.79 4 4 4 .35 0 .68-.04 1-.13h.01c-.01.04-.01.09-.01.13 0 2.21 1.79 4 4 4s4-1.79 4-4c0 2.21 1.79 4 4 4s4-1.79 4-4v-.13c.32.09.65.13 1 .13a3.999 3.999 0 003.85-5.09C32.65 24.52 34 22.92 34 21z" fill="#b4dd7f"></path><path d="M22 50v12H5c-.83 0-1.58-.34-2.12-.88S2 59.83 2 59c0-1.66 1.34-3 3-3h1v-1c0-1.94.78-3.68 2.05-4.95S11.06 48 13 48a6.96 6.96 0 015.83 3.13C19.69 50.43 20.8 50 22 50z" fill="#a0d468"></path><path d="M61 40c0-2.757-2.243-5-5-5h-8.355a9.01 9.01 0 00-2.019-1.231A5.989 5.989 0 0048 29c0-3.309-2.691-6-6-6s-6 2.691-6 6c0 1.945.935 3.672 2.374 4.769A8.996 8.996 0 0036.355 35H28c-2.757 0-5 2.243-5 5v3h-2v6.09a5.964 5.964 0 00-1.941.685c-.019-.022-.04-.039-.059-.061v-15.74A4.948 4.948 0 0022 35a5.008 5.008 0 004.9-4.01c.034.001.066.01.1.01 2.757 0 5-2.243 5-5 0-.139-.03-.27-.041-.407C33.763 24.819 35 23.018 35 21a5.01 5.01 0 00-2.019-4.008A4.951 4.951 0 0034 14a4.946 4.946 0 00-1.298-3.336A4.817 4.817 0 0033 9c0-2.757-2.243-5-5-5-.569 0-1.124.107-1.653.292A6.002 6.002 0 0021 1a5.96 5.96 0 00-3.672 1.277A4.996 4.996 0 0014 1a4.981 4.981 0 00-4.65 3.209A4.902 4.902 0 008 4C5.243 4 3 6.243 3 9c0 .572.105 1.138.295 1.673A4.963 4.963 0 002 14c0 1.126.388 2.155 1.019 2.992A5.01 5.01 0 001 21a5.026 5.026 0 003.021 4.589A4.085 4.085 0 004 26c0 2.757 2.243 5 5 5 .034 0 .067-.006.1-.006A5.009 5.009 0 0014 35c1.13 0 2.162-.391 3-1.026v14.108A7.979 7.979 0 0013 47c-4.411 0-8 3.589-8 8-2.206 0-4 1.794-4 4s1.794 4 4 4h24v-8h7v4.5c0 1.93 1.57 3.5 3.5 3.5.98 0 1.864-.407 2.5-1.058A3.485 3.485 0 0044.5 63c1.93 0 3.5-1.57 3.5-3.5V55h7v8h8V43h-2zm-2 0v3h-4v6h-7c1.654 0 3-1.346 3-3v-4a8.947 8.947 0 00-1.522-5H56c1.654 0 3 1.346 3 3zm2 10.026A4.948 4.948 0 0058 49h-1v-4h4zM38 29c0-2.206 1.794-4 4-4s4 1.794 4 4-1.794 4-4 4-4-1.794-4-4zm4 6c3.859 0 7 3.141 7 7v4a1 1 0 01-1 1h-3.171c.11-.312.171-.649.171-1 0-.352-.072-.686-.184-1H47v-4h-2v2h-6v-2h-2v4h5a1 1 0 010 2h-6a1 1 0 01-1-1v-4c0-3.859 3.141-7 7-7zm-17 5c0-1.654 1.346-3 3-3h6.522A8.947 8.947 0 0033 42v4c0 1.654 1.346 3 3 3h-7v-6h-4zm2 5v4h-1c-1.13 0-2.162.391-3 1.026V45zM14 33c-1.654 0-3-1.346-3-3s1.346-3 3-3v-2a5.008 5.008 0 00-4.896 3.987C9.069 28.988 9.035 29 9 29c-1.654 0-3-1.346-3-3 0-.241.042-.5.131-.816l.291-1.029-1.046-.222A3.011 3.011 0 013 21a3.01 3.01 0 011.59-2.647A4.93 4.93 0 007 19c.577 0 1.144-.098 1.683-.291l-.674-1.883A3.004 3.004 0 014 14c0-1.654 1.346-3 3-3V9c-.692 0-1.351.142-1.951.397C5.031 9.265 5 9.136 5 9c0-1.654 1.346-3 3-3s3 1.346 3 3h2c0-1.567-.739-2.95-1.871-3.868a2.993 2.993 0 015.321-.853l.729 1.033.837-.947C18.795 3.485 19.854 3 21 3c2.206 0 4 1.794 4 4s-1.794 4-4 4v2c3.309 0 6-2.691 6-6 0-.272-.024-.537-.06-.799A2.979 2.979 0 0128 6c1.654 0 3 1.346 3 3 0 .481-.128.96-.379 1.422l-.399.732.649.524A2.981 2.981 0 0132 14c0 1.654-1.346 3-3 3v2a4.93 4.93 0 002.41-.647A3.01 3.01 0 0133 21a3.01 3.01 0 01-1.615 2.649C30.541 22.081 28.903 21 27 21v2c1.654 0 3 1.346 3 3s-1.346 3-3 3-3-1.346-3-3h-2a4.998 4.998 0 002.945 4.546A3 3 0 0122 33c-1.654 0-3-1.346-3-3v-6.35l8.406-3.736-.812-1.828-3.058 1.359-1.587-4.762-1.896.633 1.648 4.945-2.7 1.2V11h-2v7.382l-2.292-1.146-2.851-4.75-1.715 1.029 2.598 4.331-3.448 3.448 1.414 1.414 3.49-3.49 2.803 1.4V30c0 1.654-1.346 3-3 3zM5 61c-1.103 0-2-.897-2-2s.897-2 2-2h2v-2c0-3.309 2.691-6 6-6 1.741 0 3.372.752 4.503 2.041A5.968 5.968 0 0016 55h2c0-1.859 1.279-3.411 3-3.858V61zm22 0h-4v-6h4zm-3.829-8A3.006 3.006 0 0126 51h10v2zM39.5 61c-.827 0-1.5-.673-1.5-1.5v-9c0-.827.673-1.5 1.5-1.5s1.5.673 1.5 1.5v9c0 .827-.673 1.5-1.5 1.5zm6.5-1.5c0 .827-.673 1.5-1.5 1.5s-1.5-.673-1.5-1.5v-9c0-.827.673-1.5 1.5-1.5s1.5.673 1.5 1.5zm2-8.5h10c1.304 0 2.416.836 2.829 2H48zm13 10h-4v-6h4z"></path><path d="M11 51h2v2h-2zM15 57h2v2h-2zM9 57h2v2H9zM9 35v-1H6c-2.757 0-5 2.243-5 5v1h3c2.757 0 5-2.243 5-5zm-3 1h.829A3.006 3.006 0 014 38h-.829A3.006 3.006 0 016 36zM7 44v1h3c2.757 0 5-2.243 5-5v-1h-3c-2.757 0-5 2.243-5 5zm5-3h.829A3.006 3.006 0 0110 43h-.829A3.006 3.006 0 0112 41zM52 6a1 1 0 011 1v1h-1v2h4V8h-1V7a1 1 0 012 0h2c0-1.654-1.346-3-3-3a2.98 2.98 0 00-2 .78A2.98 2.98 0 0052 4c-1.654 0-3 1.346-3 3h2a1 1 0 011-1zM56 15c-1.654 0-3 1.346-3 3h2a1 1 0 012 0v1h-1v2h4v-2h-1v-1a1 1 0 012 0h2c0-1.654-1.346-3-3-3a2.98 2.98 0 00-2 .78 2.98 2.98 0 00-2-.78zM39 12a1 1 0 011 1v1h-1v2h4v-2h-1v-1a1 1 0 012 0h2c0-1.654-1.346-3-3-3a2.98 2.98 0 00-2 .78 2.976 2.976 0 00-2-.78c-1.654 0-3 1.346-3 3h2a1 1 0 011-1z"></path></svg> 