<?xml version="1.0" encoding="UTF-8"?> <svg xmlns="http://www.w3.org/2000/svg" viewBox="0 0 512 512"><path d="M404.427 51.702c2.197 6.005 26.598 77.466-23.447 161.736-30.397 51.185-76.55 54.571-81.07 54.781-2.647-3.67-28.704-41.914-7.535-97.553C327.226 79.062 398.359 53.717 404.427 51.702z" fill="#80c56e"></path><path d="M404.427 51.702L299.909 268.218c4.52-.21 50.673-3.596 81.07-54.781 50.046-84.269 25.645-155.731 23.448-161.735z" fill="#66ad66"></path><path d="M107.573 51.702c-2.197 6.005-26.598 77.466 23.447 161.736 30.397 51.185 76.55 54.571 81.07 54.781 2.647-3.67 28.704-41.914 7.535-97.553C184.773 79.062 113.641 53.717 107.573 51.702z" fill="#80c56e"></path><path d="M219.626 170.665C184.773 79.062 113.641 53.717 107.573 51.702c61.804 118.047 95.141 193.661 104.772 216.158 3.708-5.302 27.903-42.99 7.281-97.195z" fill="#66ad66"></path><path d="M255.999 7.5c-7.452 7.23-93.584 94.509-79.885 253.074 8.32 96.311 73.423 133.844 79.885 137.342 6.462-3.499 71.565-41.031 79.885-137.342C349.584 102.009 263.452 14.73 255.999 7.5z" fill="#80c56e"></path><path d="M255.999 7.5v390.416c6.462-3.499 71.565-41.031 79.885-137.342C349.584 102.009 263.452 14.73 255.999 7.5z" fill="#66ad66"></path><path d="M440.401 250.217c16.206-55.698 10.721-107.466 10.721-107.466s-31.209 13.903-109.64 64.586c-60.966 39.397-79.828 108.47-85.481 127.086h71.65c52.083 0 98.199-34.196 112.75-84.206z" fill="#80c56e"></path><path d="M451.122 142.751S370.516 301.988 256 334.423h71.65c52.084 0 98.2-34.196 112.751-84.206 16.206-55.697 10.721-107.466 10.721-107.466z" fill="#66ad66"></path><path d="M71.599 250.217C55.393 194.52 60.877 142.751 60.877 142.751s31.209 13.903 109.64 64.586c60.966 39.397 79.828 108.47 85.481 127.086h-71.65c-52.082 0-98.198-34.196-112.749-84.206z" fill="#80c56e"></path><path d="M255.999 334.423c-5.653-18.616-24.516-87.69-85.481-127.086-78.432-50.683-109.64-64.586-109.64-64.586s80.606 159.238 195.121 191.672z" fill="#66ad66"></path><path d="M307.812 504.5H204.188c-27.485 0-51.063-19.598-56.089-46.62l-22.217-119.466h260.235L363.901 457.88c-5.025 27.022-28.604 46.62-56.089 46.62z" fill="#fec37d"></path><path d="M335.784 338.414L313.566 457.88c-5.025 27.022-28.603 46.62-56.089 46.62h50.333c27.485 0 51.063-19.598 56.089-46.62l22.217-119.466h-50.332z" fill="#f9ae5d"></path><path d="M390.654 365.261H121.346c-10.913 0-19.76-8.847-19.76-19.76 0-10.913 8.847-19.76 19.76-19.76h269.309c10.913 0 19.76 8.847 19.76 19.76-.001 10.913-8.849 19.76-19.761 19.76z" fill="#f2a559"></path><path d="M390.654 325.741h-31.658v39.52h31.658c10.913 0 19.76-8.847 19.76-19.76 0-10.913-8.848-19.76-19.76-19.76z" fill="#ea8f3d"></path><path d="M447.602 252.313c16.43-56.466 11.209-108.178 10.979-110.352l-.008-.048a7.354 7.354 0 00-.137-.825l-.017-.062a7.36 7.36 0 00-.209-.717c-.028-.082-.061-.161-.092-.241a7.647 7.647 0 00-.342-.765 7.6 7.6 0 00-.287-.504c-.041-.066-.08-.133-.123-.198a7.352 7.352 0 00-.437-.593c-.016-.019-.029-.04-.045-.059a7.39 7.39 0 00-.581-.621c-.024-.023-.051-.043-.075-.066a7.44 7.44 0 00-.548-.463c-.069-.053-.142-.102-.214-.153a7.63 7.63 0 00-.47-.31c-.043-.026-.082-.057-.125-.083-.05-.029-.103-.049-.154-.077-.07-.038-.134-.081-.206-.117-.087-.044-.177-.077-.265-.118-.096-.044-.192-.089-.289-.129a7.636 7.636 0 00-.554-.199c-.073-.023-.144-.05-.217-.071a7.419 7.419 0 00-1.638-.278c-.053-.003-.105-.001-.158-.003a7.482 7.482 0 00-.653.004c-.084.004-.168.012-.251.019a8.13 8.13 0 00-.834.118 7.869 7.869 0 00-.569.14c-.076.021-.152.039-.227.063a7.387 7.387 0 00-.784.294c-.738.329-11.215 5.056-34.484 18.36 14.217-57.433-.248-100.031-2.115-105.135-.021-.058-.049-.111-.071-.168a7.332 7.332 0 00-.473-.985 6.58 6.58 0 00-.389-.609 8.877 8.877 0 00-.23-.31 8.969 8.969 0 00-.474-.544 8.126 8.126 0 00-.796-.716 7.085 7.085 0 00-.592-.417 8.056 8.056 0 00-.368-.217c-.058-.033-.112-.07-.172-.101-.033-.018-.068-.03-.102-.047a7.912 7.912 0 00-.386-.178c-.099-.043-.198-.088-.298-.127-.119-.046-.241-.085-.363-.125-.112-.037-.223-.076-.336-.107-.115-.032-.232-.056-.349-.082-.119-.027-.237-.057-.357-.078-.122-.021-.246-.033-.369-.049-.114-.014-.228-.032-.342-.041-.14-.011-.281-.011-.421-.014-.098-.002-.196-.009-.294-.007-.148.003-.296.017-.445.028-.092.007-.185.01-.276.021-.135.016-.27.042-.405.065-.106.018-.213.033-.319.055-.113.025-.225.058-.338.088-.127.034-.255.066-.38.106-.021.007-.042.01-.063.017-4.694 1.558-43.985 15.567-79.111 58.072-22.941-61.267-56.384-95.352-61.73-100.538-.06-.058-.125-.108-.187-.164-.107-.097-.213-.195-.326-.286-.089-.072-.182-.138-.274-.205-.103-.076-.204-.152-.31-.223-.102-.068-.207-.128-.312-.19-.104-.061-.206-.124-.313-.181s-.217-.106-.327-.157c-.11-.052-.22-.105-.333-.151-.109-.044-.219-.081-.33-.121-.119-.042-.236-.086-.357-.122-.111-.033-.224-.059-.337-.087-.122-.03-.243-.064-.367-.088-.128-.025-.257-.04-.385-.059-.111-.016-.221-.036-.334-.047a7.724 7.724 0 00-.663-.033c-.024.001-.046-.002-.07-.002-.023 0-.045.003-.068.003a7.744 7.744 0 00-.663.033c-.113.011-.223.031-.334.047-.129.018-.258.034-.385.059-.125.024-.245.057-.367.088-.113.028-.226.053-.337.087-.121.036-.238.08-.357.122-.111.039-.221.076-.33.121-.113.046-.222.099-.332.151-.11.051-.219.101-.327.158-.107.056-.209.119-.313.181-.105.062-.21.122-.312.19-.107.07-.208.147-.31.223-.092.068-.185.133-.274.205-.113.091-.219.189-.326.286-.062.056-.127.106-.187.164-5.346 5.187-38.789 39.271-61.73 100.538-35.126-42.505-74.417-56.514-79.111-58.072-.022-.007-.044-.011-.065-.018-.117-.038-.237-.067-.356-.099-.121-.033-.242-.068-.363-.095-.092-.02-.184-.032-.277-.048-.15-.027-.299-.055-.449-.072-.07-.008-.141-.01-.212-.016a7.28 7.28 0 00-.509-.032c-.076-.001-.152.004-.228.005a7.894 7.894 0 00-.487.016c-.098.008-.195.024-.293.035-.139.016-.279.031-.417.055-.111.019-.221.048-.332.072-.124.028-.249.053-.372.087-.11.031-.219.069-.329.105-.123.04-.246.079-.366.126-.103.04-.204.086-.305.13-.126.055-.251.11-.373.172-.036.018-.073.031-.108.05-.063.033-.121.073-.183.108a7.22 7.22 0 00-.637.399 8.162 8.162 0 00-.585.452 7.597 7.597 0 00-1.421 1.631 7.984 7.984 0 00-.669 1.309c-.022.057-.05.11-.071.168-1.867 5.104-16.332 47.702-2.115 105.135-23.27-13.304-33.747-18.031-34.484-18.36l-.024-.009a7.448 7.448 0 00-.755-.284c-.082-.026-.166-.045-.249-.069a7.244 7.244 0 00-.546-.134 7.592 7.592 0 00-.831-.117c-.09-.008-.179-.016-.268-.021a7.258 7.258 0 00-.626-.004c-.061.002-.123 0-.184.004a7.428 7.428 0 00-1.626.276c-.083.024-.164.055-.247.081a7.711 7.711 0 00-.521.187c-.106.043-.211.092-.315.14-.083.038-.167.069-.249.111-.066.034-.126.074-.191.109-.055.03-.113.052-.167.084-.048.028-.09.062-.137.09a7.77 7.77 0 00-.44.29c-.081.057-.163.112-.241.172a7.406 7.406 0 00-.504.426c-.038.035-.079.067-.117.102a7.26 7.26 0 00-.569.609c-.026.031-.048.065-.074.097a7.306 7.306 0 00-.408.554c-.048.072-.092.147-.137.221a7.542 7.542 0 00-.405.744 7.38 7.38 0 00-.209.494c-.034.088-.07.174-.101.264-.076.22-.14.444-.195.67-.009.036-.021.071-.03.107a7.696 7.696 0 00-.136.815c-.002.018-.007.035-.009.053-.23 2.174-5.451 53.886 10.979 110.352 8.322 28.601 26.315 52.733 50.743 68.818-8.926 4.483-15.069 13.721-15.069 24.371 0 14.114 10.782 25.756 24.542 27.124l16.11 86.626C146.408 489.816 173.098 512 204.188 512h103.625c31.088 0 57.777-22.184 63.462-52.749l16.085-86.49h9.282c15.031 0 27.26-12.229 27.26-27.26 0-13.677-10.126-25.03-23.274-26.965 22.506-16.033 39.087-39.117 46.974-66.223zm-52.764-87.09c-12.296 7.337-26.945 16.339-44.159 27.302l-.463.295c-2.036 1.297-4.104 2.62-6.212 3.972l-.323.207c-.046-.574-.1-1.146-.149-1.719a359.937 359.937 0 00-.409-4.564c17.42-36.628 37.203-76.315 58.938-118.237 3.584 19.541 5.85 52.894-7.223 92.744zm-7.106-97.698c-17.412 33.623-33.569 65.808-48.259 96.132-2.761-15.845-6.442-30.567-10.714-44.143 20.544-27.369 43.286-43.336 58.973-51.989zM263.5 27.121c7.416 9.179 17.087 22.603 26.81 40.295a311.905 311.905 0 0122.809 52.396c.052.235.109.47.185.702 8.174 24.944 13.363 51.221 15.469 78.269l.047.625c.118 1.552.224 3.107.321 4.663.028.446.057.892.083 1.339.024.405.041.812.064 1.218-24.237 17.653-44.115 41.568-59.434 71.445l-.11.213a252.073 252.073 0 00-1.731 3.449l-.282.576a259.85 259.85 0 00-1.613 3.352c-.094.198-.185.398-.278.597a268.731 268.731 0 00-2.339 5.135V27.121h-.001zm-64.803 93.393a7.64 7.64 0 00.185-.702 311.905 311.905 0 0122.809-52.396c9.722-17.692 19.393-31.116 26.81-40.295v264.273a263.504 263.504 0 00-2.343-5.143c-.091-.195-.181-.391-.273-.586a254.262 254.262 0 00-1.617-3.359l-.279-.571a258.248 258.248 0 00-1.732-3.451l-.11-.213c-15.319-29.877-35.197-53.791-59.434-71.445.023-.406.04-.813.064-1.218.026-.447.055-.892.083-1.339.098-1.557.203-3.112.321-4.663l.047-.625c2.105-27.047 7.294-53.323 15.469-78.267zm-15.457-1c-4.272 13.576-7.952 28.299-10.714 44.144-14.687-30.319-30.844-62.504-48.259-96.133 15.687 8.653 38.43 24.62 58.973 51.989zM109.941 72.48c21.739 41.93 41.522 81.618 58.937 118.238a358.13 358.13 0 00-.409 4.563c-.048.573-.103 1.145-.149 1.719l-.321-.205a2290.838 2290.838 0 00-6.309-4.034l-.311-.198c-17.239-10.98-31.907-19.994-44.217-27.339-13.074-39.851-10.807-73.204-7.221-92.744zm20.411 118.323l2.155 1.334a1909.509 1909.509 0 018.671 5.405l2.924 1.836c1.769 1.114 3.552 2.24 5.347 3.378l1.922 1.218a2160.648 2160.648 0 017.987 5.099c2.346 1.505 4.705 3.021 7.09 4.562a166.773 166.773 0 014.283 2.878l.002.002c30.127 20.893 53.328 52.201 69.133 93.226.098.256.193.516.291.772.451 1.182.899 2.368 1.339 3.566.199.545.393 1.098.59 1.646.301.836.602 1.671.897 2.515h-9.097c-50.396-23.041-92.656-69.901-119.324-105.335-14.938-19.848-26.767-38.397-34.824-51.907 11.69 6.449 28.343 16.05 50.614 29.805zm-51.551 57.319c-8.628-29.655-10.922-58.388-11.244-78.213 8.182 13.645 19.945 31.966 34.85 51.79 32.31 42.975 65.819 75.32 99.933 96.542h-60.876c-30.634-12.901-53.429-38.383-62.663-70.119zm330.1 97.379c0 6.76-5.5 12.26-12.26 12.26H219.999c-4.143 0-7.5 3.358-7.5 7.5s3.357 7.5 7.5 7.5H372.1l-15.575 83.748C352.163 479.971 331.676 497 307.813 497H204.188c-23.864 0-44.352-17.029-48.714-40.491l-15.575-83.748h26.434c4.143 0 7.5-3.358 7.5-7.5s-3.357-7.5-7.5-7.5h-39.001c-6.76 0-12.26-5.5-12.26-12.26s5.5-12.26 12.26-12.26h104.849l.047.002.034-.002H396.641c6.76 0 12.26 5.5 12.26 12.26zm-38.365-27.26h-60.895c31.927-19.88 63.395-49.556 93.848-88.574a7.499 7.499 0 00-1.298-10.527 7.502 7.502 0 00-10.526 1.298c-36.89 47.264-75.007 80.136-113.296 97.704-.066.03-.127.068-.192.1h-9.16c.295-.844.596-1.679.897-2.515.197-.548.39-1.101.59-1.646.439-1.198.887-2.384 1.339-3.566.098-.256.193-.517.291-.772 15.805-41.025 39.006-72.333 69.133-93.226l.002-.002a2352.525 2352.525 0 0111.354-7.427l1.581-1.014c2.152-1.377 4.285-2.738 6.402-4.083l2.006-1.272c1.736-1.1 3.46-2.189 5.172-3.267 1.051-.661 2.086-1.312 3.116-1.957a1813.414 1813.414 0 018.9-5.546l1.772-1.097c22.322-13.788 39.006-23.406 50.71-29.862a581.508 581.508 0 01-10.088 16.298 7.5 7.5 0 1012.623 8.102 604.34 604.34 0 009.64-15.525c-.316 19.802-2.607 48.527-11.258 78.259-9.234 31.734-32.029 57.216-62.663 70.117z"></path></svg> 