<?xml version="1.0" encoding="UTF-8"?> <svg xmlns="http://www.w3.org/2000/svg" height="512pt" viewBox="0 0 512 512" width="512pt"><path d="M380.398 297.973c0-91.684-74.128-166.008-165.57-166.008S49.262 206.289 49.262 297.973 123.387 463.98 214.828 463.98s165.57-74.324 165.57-166.007zm0 0" fill="#97c9e8"></path><path d="M214.828 131.965c-8.496 0-16.844.644-25 1.883 79.578 12.086 140.567 80.96 140.567 164.125 0 83.16-60.989 152.039-140.567 164.125a166.469 166.469 0 0025 1.882c91.442 0 165.57-74.324 165.57-166.007s-74.128-166.008-165.57-166.008zm0 0" fill="#60b6ff"></path><g fill="#baeb6c"><path d="M193.309 196.48c-25.504 15.98-44.633 41.555-30.286 70.325 14.344 28.77 46.227 17.582 75.72 13.586 29.487-3.996 7.171 87.105 24.706 109.484 17.535 22.375 66.95-22.379 62.168-51.148-7.078-42.594-9.562-57.54 47.824-87.907l.157-.054c-19.344-65.5-77.895-114.098-148.399-118.47l-.008.25s-6.375 47.95-31.882 63.934zm0 0"></path><path d="M318.566 168.598c.008.007.02.015.032.023-.012-.008-.02-.016-.032-.023zm0 0M338.809 187.96l.007.009-.007-.008zm0 0M104.84 373.09c-7.66-11.68 13.547-39.156 18.332-59.934 4.781-20.777-23.914-19.18-32.68-26.37-8.77-7.196-20.722-38.36-29.492-45.552l-1.402-1.109c-6.68 18.016-10.336 37.5-10.336 57.848 0 54.87 26.554 103.515 67.48 133.742l.051-3.48s6.379-27.173-11.953-55.145zm0 0M325.617 338.727c-.035-.207-.07-.41-.101-.622a165.222 165.222 0 01-13.758 36.442c9.422-11.113 15.715-24.668 13.86-35.82zm0 0"></path></g><path d="M225.2 132.297l-.009.25s-.535 4.004-1.902 10.074c58.059 21.977 100.566 75.723 106.414 140.102 7.317-10.008 20.7-19.711 43.738-31.903l.157-.054c-19.348-65.5-77.899-114.098-148.399-118.47zm0 0" fill="#96d629"></path><path d="M169.074 188.938C89.004 175.351 39.336 74.543 39.336 74.543S119.48-4.242 199.546 9.34c80.067 13.586 129.735 114.394 129.735 114.394s-80.144 78.786-160.207 65.204zm0 0" fill="#49cb5c"></path><path d="M199.547 9.344c-15.29-2.594-30.574-1.813-45.309 1.136 76.715 17.227 124.043 113.254 124.043 113.254s-52.465 51.563-114.902 64.063c1.883.426 3.777.812 5.695 1.14 80.063 13.583 160.207-65.203 160.207-65.203S279.613 22.926 199.547 9.344zm0 0" fill="#07b128"></path><path d="M383.738 91.086c21.48-50.824 95.899-67.938 95.899-67.938s39.597 65.293 18.12 116.118c-21.476 50.824-95.898 67.933-95.898 67.933s-39.597-65.289-18.12-116.113zm0 0" fill="#49cb5c"></path><path d="M479.64 23.148s-16.925 3.899-36.96 13.48c10.277 21.778 26.574 65.97 11.078 102.638-11.238 26.586-36.961 43.945-58.942 54.457 3.97 8.406 7.043 13.476 7.043 13.476s74.422-17.11 95.899-67.933C519.238 88.44 479.64 23.148 479.64 23.148zm0 0" fill="#07b128"></path><path d="M503.898 59.672c-7.398-23.262-17.421-39.918-17.847-40.617-1.645-2.711-5.028-4.121-8.094-3.418-.793.183-19.727 4.601-41.562 15.508-29.48 14.718-50.075 34.367-59.563 56.816-7.898 18.691-9.031 41.547-3.43 66.793a212.748 212.748 0 00-39.992-34.805c-4.469-8.828-16.285-30.562-34.758-53.277-6.082-7.477-17.785 1.906-11.64 9.46 12.449 15.31 21.816 30.364 27.675 40.708l-68.32-13.317-64.914-88.543c6.305.09 12.629.7 18.922 1.934 19.953 3.906 39.664 14.066 58.59 30.2 7.418 6.32 17.047-5.184 9.73-11.419-20.91-17.82-42.925-29.093-65.437-33.504-34.367-6.726-74.45 2.102-115.922 25.54-30.914 17.468-51.586 36.656-52.45 37.464-2.765 2.582-3.206 7.278-.89 10.297 3.031 6.219 14.52 28.653 33.64 52.805 11.274 14.242 23.16 26.43 35.458 36.445a176.395 176.395 0 00-10.184 9.211c-17.574 17.192-31.031 37.469-39.867 59.637-7.809 19.59-12.008 40.66-12.242 62.379-.387 35.515 9.902 69.77 29.765 99.062 19.403 28.614 46.528 50.582 78.442 63.528 8.93 3.617 14.578-10.274 5.64-13.899a158.346 158.346 0 01-32.445-17.848c1.281-7.105 4.254-32.68-12.734-59.156-2.38-3.703 4.73-18.246 8.976-26.933 4.38-8.953 8.903-18.211 11.016-26.926 2.242-9.258-.281-17.031-7.297-22.485-5.152-4.003-11.89-6.074-17.832-7.902-3.86-1.187-8.234-2.531-9.797-3.836-3.219-2.695-8.476-12.66-12.7-20.664-4.687-8.879-9.151-17.328-13.706-22.531 10.254-24.352 26.723-45.899 47.348-62.383 18.84 12.836 40.343 21.691 63.199 23.484-26.508 20.54-35.082 46.766-22.824 71.961 14.312 29.418 43.77 24.72 69.761 20.579 4.496-.72 9.149-1.461 13.606-2.016 1.672-.211 2.176.246 2.511.543 5.692 5.062 5.524 29.242 5.403 46.898-.168 24.422-.324 47.489 8.773 59.332 4.64 6.04 11.176 9.125 18.836 9.125 4.59 0 9.578-1.105 14.809-3.347 22.62-9.688 46.136-38.844 42.55-61.914-3.136-20.168-5.21-33.493-.32-44.235 4.524-9.941 15.453-19.144 36.98-30.886a158.42 158.42 0 013.747 36.078c-.461 42.293-17.367 81.879-47.602 111.457-33.789 33.054-81.281 49.379-128.258 44.203-9.574-1.04-11.226 13.855-1.64 14.91 51.422 5.664 103.41-12.211 140.387-48.39 33.101-32.383 51.609-75.715 52.113-122.02.668-61.399-30.836-115.793-78.793-147.125 9.91-7.067 17.293-13.176 21.387-16.723 17.484 12.543 32.992 27.996 45.894 46 30.977 43.227 43.262 95.926 34.598 148.395-17.89 108.308-120.555 181.879-228.883 163.984-52.473-8.668-98.426-37.242-129.402-80.469-30.977-43.226-43.262-95.93-34.598-148.394 1.559-9.442-13.234-11.918-14.797-2.446-9.32 56.422 3.895 113.094 37.2 159.579 33.308 46.48 82.73 77.21 139.152 86.53 11.8 1.95 23.613 2.911 35.343 2.911 44.344 0 87.48-13.77 124.243-40.11 46.488-33.308 77.222-82.722 86.539-139.144 6.828-41.344 1.543-82.82-14.868-120.328 7.575-2.234 20.465-6.57 34.582-13.621 29.477-14.719 50.075-34.367 59.56-56.817 9.491-22.453 9.226-50.914-.767-82.308zM68.566 265.91c5.582 10.582 10.86 20.582 16.344 25.168 3.883 3.246 9.29 4.91 15.012 6.668 14.66 4.508 16.363 6.719 14.957 12.516-1.727 7.129-5.887 15.64-9.91 23.87-7.746 15.848-15.063 30.813-8.13 41.626a71.328 71.328 0 0111.352 39.797C63.516 375.27 45.324 311.64 61.965 253.809c2.207 3.78 4.527 8.175 6.601 12.101zm362.891-147.398l-21.316-51.657c10.37-9.699 22.406-17 32.656-22.14 8.73-4.38 17.039-7.656 23.7-9.977zm48.867-77.957c2.98 6.398 6.434 14.652 9.383 23.98 3.234 10.238 6.203 22.926 6.793 36.16l-49.953 20.61zM390.648 93.8c2.211-5.23 5.07-10.082 8.375-14.559l24.266 58.797-21.777 52.066c-3.059-6.488-6.66-15.015-9.719-24.699-6.133-19.39-11.309-47.558-1.145-71.605zm48.051 91.426c-8.402 4.218-16.422 7.41-22.953 9.714l22.598-54.023 57.52-23.734c-.837 6.445-2.426 12.832-5.016 18.957-10.16 24.047-33.965 39.968-52.149 49.086zm-270.457-4.27a100.964 100.964 0 01-7.844-1.875l83.012-60.852 68.352 13.325c-24.899 19.617-85.496 60.77-143.52 49.402zm-75.867-46.93c-17.754-19.132-30.766-39.593-38.238-52.691l86.984 16.957zm15.363-100.07l36.395 49.64-87.547-17.066c11.02-8.703 29.215-21.77 51.152-32.574zm58.094 53.871l-44.121-60.183c13.207-5.43 27.387-9.7 41.922-11.602l61.035 83.25zm-4.668 14.371l62.207 12.125-79.84 58.524c-15.054-6.953-28.605-16.95-40.46-28.063zm203.524 146.469c-27.04 14.406-40.282 25.723-46.563 39.527-6.746 14.82-4.273 30.73-.852 52.75 2.02 12.985-13.41 37.16-33.628 45.82-7.48 3.204-12.81 2.825-15.844-1.128-5.961-7.754-5.797-31.23-5.668-50.09.176-26.094.332-48.629-10.434-58.207-3.87-3.442-8.824-4.899-14.328-4.223-4.715.586-9.5 1.348-14.121 2.086-27.57 4.395-44.922 6.152-53.91-12.324-14.563-29.93 14.918-52.098 28.265-60.238 2.72-1.657 5.243-3.61 7.586-5.786 32.266-3.855 62.754-17.699 89.922-35.039 32.575 19.461 57.582 50.262 69.575 86.852zm0 0"></path></svg> 