<?xml version="1.0" encoding="UTF-8"?> <svg xmlns="http://www.w3.org/2000/svg" height="512" viewBox="0 0 511.984 511.984" width="512"><path d="M447.992 36.267l-22.231-22.231c-5.395-5.395-14.14-5.398-19.535-.003l-12.468 12.468c-5.395 5.395-14.14 5.393-19.535-.003l-12.462-12.462c-5.395-5.395-14.142-5.395-19.538 0L329.76 26.499c-5.395 5.395-14.142 5.395-19.538 0L297.76 14.036c-5.395-5.395-14.142-5.395-19.538 0L265.76 26.499c-5.395 5.395-14.142 5.395-19.538 0l-12.463-12.463c-5.395-5.395-14.142-5.395-19.538 0l-12.462 12.463c-5.395 5.395-14.142 5.395-19.538 0l-12.462-12.463c-5.395-5.395-14.142-5.395-19.538 0l-12.463 12.463c-5.395 5.395-14.142 5.395-19.538 0l-12.462-12.463c-5.395-5.395-14.142-5.395-19.538 0L63.992 36.267v40h384zM63.992 475.716l22.231 22.231c5.395 5.395 14.142 5.395 19.538 0l12.462-12.463c5.395-5.395 14.142-5.395 19.538 0l12.463 12.463c5.395 5.395 14.142 5.395 19.538 0l12.462-12.463c5.395-5.395 14.142-5.395 19.538 0l12.462 12.463c5.395 5.395 14.142 5.395 19.538 0l12.463-12.463c5.395-5.395 14.142-5.395 19.538 0l12.462 12.463c5.395 5.395 14.142 5.395 19.538 0l12.462-12.463c5.395-5.395 14.142-5.395 19.538 0l12.463 12.463c5.395 5.395 14.142 5.395 19.538 0l12.462-12.462c5.395-5.395 14.14-5.398 19.535-.003l12.468 12.468c5.395 5.395 14.14 5.393 19.535-.003l22.231-22.231v-40h-384v40z" fill="#a6de92"></path><path d="M63.992 76.267h384v359.449h-384z" fill="#fff"></path><circle cx="255.992" cy="255.992" fill="#f5d996" r="113.73"></circle><path d="M255.992 369.721c26.387 0 50.674-8.989 69.97-24.068l-35.232-35.232c-19.185-19.185-50.29-19.185-69.475 0l-35.232 35.232c19.295 15.079 43.582 24.068 69.969 24.068z" fill="#b68967"></path><path d="M305.982 207.235h-15.355c-19.128 0-34.635 15.506-34.635 34.635v15.355h15.355c19.128 0 34.635-15.506 34.635-34.635zM206.002 207.235h15.355c19.128 0 34.635 15.506 34.635 34.635v15.355h-15.355c-19.128 0-34.635-15.506-34.635-34.635z" fill="#a6de92"></path><path d="M455.063 29.196L432.832 6.965c-9.286-9.286-24.393-9.287-33.677-.003L386.687 19.43a3.793 3.793 0 01-2.694 1.116 3.8 3.8 0 01-2.698-1.119L368.832 6.965c-9.286-9.286-24.394-9.286-33.68 0L322.69 19.427a3.82 3.82 0 01-5.396 0L304.832 6.964c-9.286-9.285-24.395-9.285-33.68 0L258.69 19.427a3.82 3.82 0 01-5.396 0L240.832 6.964c-9.286-9.285-24.395-9.285-33.68 0L194.69 19.427a3.82 3.82 0 01-5.396 0L176.832 6.964c-9.286-9.285-24.395-9.285-33.68 0L130.69 19.427a3.82 3.82 0 01-5.396 0L112.832 6.964c-9.286-9.285-24.395-9.286-33.68 0L56.921 29.196a10 10 0 00-2.929 7.071v439.449c0 2.652 1.054 5.196 2.929 7.071l22.231 22.231c9.285 9.286 24.394 9.286 33.68 0l12.462-12.462a3.817 3.817 0 015.395 0l12.462 12.463c9.285 9.286 24.394 9.286 33.68 0l12.462-12.462a3.817 3.817 0 015.395 0l12.462 12.463c9.285 9.286 24.394 9.286 33.68 0l12.462-12.462a3.817 3.817 0 015.395 0l12.462 12.463c9.285 9.286 24.394 9.286 33.68 0l12.462-12.462a3.817 3.817 0 015.395 0l12.462 12.463c9.287 9.287 24.395 9.286 33.68 0l12.462-12.462a3.8 3.8 0 012.698-1.119c.589 0 1.723.145 2.695 1.116l12.467 12.468c4.642 4.642 10.738 6.962 16.836 6.962s12.198-2.322 16.841-6.965l22.231-22.231a10 10 0 002.929-7.071V36.267a9.975 9.975 0 00-2.924-7.071zM93.295 21.107a3.817 3.817 0 015.395 0l12.462 12.463c9.285 9.284 24.394 9.285 33.68 0l12.462-12.462a3.817 3.817 0 015.395 0l12.462 12.463c9.285 9.284 24.394 9.285 33.68 0l12.462-12.462a3.817 3.817 0 015.395 0l12.462 12.463c9.285 9.284 24.394 9.285 33.68 0l12.462-12.462a3.817 3.817 0 015.395 0l12.462 12.463c4.498 4.498 10.479 6.975 16.84 6.975s12.342-2.478 16.84-6.976l12.462-12.462a3.818 3.818 0 015.396 0l12.462 12.462c4.498 4.498 10.477 6.976 16.837 6.977h.004c6.359 0 12.338-2.477 16.836-6.974l12.467-12.468a3.82 3.82 0 015.393.003l19.303 19.302V66.27h-137c-5.523 0-10 4.477-10 10s4.477 10 10 10h137v339.449h-364V86.267h137c5.523 0 10-4.477 10-10s-4.477-10-10-10h-137V40.409zm325.394 469.77a3.818 3.818 0 01-5.393.003l-12.467-12.468a23.651 23.651 0 00-16.836-6.974h-.004c-6.36.001-12.339 2.479-16.837 6.977l-12.462 12.462a3.818 3.818 0 01-5.396 0l-12.462-12.463a23.66 23.66 0 00-16.84-6.975 23.66 23.66 0 00-16.84 6.976l-12.462 12.462a3.82 3.82 0 01-5.396 0l-12.463-12.463c-9.286-9.285-24.395-9.285-33.68 0l-12.462 12.462a3.82 3.82 0 01-5.396 0l-12.463-12.463c-9.286-9.285-24.395-9.285-33.68 0l-12.462 12.462a3.82 3.82 0 01-5.396 0l-12.463-12.463c-9.286-9.285-24.395-9.285-33.68 0L98.69 490.877a3.821 3.821 0 01-5.396 0l-19.303-19.302v-25.858h364v25.858z"></path><path d="M132.262 255.992c0 68.225 55.505 123.729 123.729 123.729S379.72 324.216 379.72 255.992s-55.505-123.729-123.729-123.729-123.729 55.504-123.729 123.729zm69.3 88.264l26.764-26.764c7.39-7.39 17.215-11.46 27.666-11.46s20.276 4.07 27.666 11.46l26.764 26.764c-15.833 9.799-34.481 15.465-54.43 15.465s-38.598-5.666-54.43-15.465zm64.43-102.387c0-13.583 11.051-24.635 24.635-24.635h5.355v5.355c0 13.583-11.051 24.635-24.635 24.635h-5.355zm-20 5.356h-5.355c-13.583 0-24.635-11.051-24.635-24.635v-5.355h5.355c13.583 0 24.635 11.051 24.635 24.635zm10-94.963c57.197 0 103.729 46.533 103.729 103.729 0 30.007-12.812 57.073-33.247 76.031L297.8 303.349c-8.773-8.772-19.82-14.431-31.809-16.463v-19.662h5.355c24.612 0 44.635-20.023 44.635-44.635v-15.355c0-5.523-4.477-10-10-10h-15.355c-13.963 0-26.444 6.449-34.635 16.52-8.191-10.071-20.672-16.52-34.635-16.52h-15.355c-5.523 0-10 4.477-10 10v15.355c0 24.612 20.023 44.635 44.635 44.635h5.355v19.662c-11.988 2.031-23.036 7.691-31.809 16.463l-28.673 28.673c-20.435-18.958-33.247-46.024-33.247-76.031 0-57.196 46.533-103.729 103.73-103.729z"></path><circle cx="255.992" cy="76.267" r="10"></circle></svg> 