<?xml version="1.0" encoding="UTF-8"?> <svg xmlns="http://www.w3.org/2000/svg" height="512" viewBox="0 0 60 60" width="512"><g fill-rule="nonzero" fill="none"><path d="M29.471 1H15.31a1.89 1.89 0 00-1.8 2.461l3.545 11.218a1.89 1.89 0 001.8 1.321H23c.41.003.811.128 1.15.36l8.992 6.3c.318.222.696.34 1.084.34h5.883A1.891 1.891 0 0042 21.109v-8.4c0-.528-.22-1.032-.609-1.39L30.753 1.5c-.35-.322-.807-.5-1.282-.5z" fill="#dfc49c"></path><path d="M57.109 1H40.953a1.891 1.891 0 00-1.283 3.28l4.062 3.752a1.89 1.89 0 001.817.425L57.643 4.9A1.891 1.891 0 0059 3.085v-.194A1.891 1.891 0 0057.109 1z" fill="#ffe0b2"></path><path d="M57.109 1h-3C55.153 1 56 1.847 56 2.891v.194A1.889 1.889 0 0154.643 4.9L43.809 8.087a1.884 1.884 0 001.74.37L57.643 4.9A1.889 1.889 0 0059 3.085v-.194A1.891 1.891 0 0057.109 1z" fill="#dfc49c"></path><path d="M56.575 9.384L47.356 12.1A1.892 1.892 0 0046 13.914v7.2A1.891 1.891 0 0047.891 23h1.951c.052 0 .104-.002.156-.006l7.267-.6c.98-.081 1.735-.9 1.735-1.885V11.2a1.891 1.891 0 00-2.425-1.816z" fill="#ffe0b2"></path><path d="M56.575 9.384l-1.258.371c.433.355.684.885.683 1.445v9.311c0 .984-.755 1.803-1.735 1.884l-6.781.56c.134.03.27.046.407.047h1.951c.052 0 .104-.002.156-.006l7.267-.6A1.891 1.891 0 0059 20.509V11.2a1.891 1.891 0 00-2.425-1.816zM56.953 26.43l-4.11.342a1.889 1.889 0 00-1.661 1.366l-2.627 9.213c-.188.66-.004 1.37.48 1.855l6.737 6.743A1.891 1.891 0 0059 44.612v-16.3a1.891 1.891 0 00-2.047-1.882z" fill="#dfc49c"></path><path d="M7.145 1H2.891A1.891 1.891 0 001 2.891v11.218C1 15.153 1.847 16 2.891 16h7.8a1.89 1.89 0 001.8-2.461L8.947 2.321A1.89 1.89 0 007.145 1z" fill="#ffe0b2"></path><path d="M12.492 13.539L8.948 2.321A1.893 1.893 0 007.145 1h-3a1.893 1.893 0 011.8 1.321l3.547 11.218A1.89 1.89 0 017.69 16h3a1.89 1.89 0 001.802-2.461z" fill="#dfc49c"></path><path d="M2.891 20A1.891 1.891 0 001 21.891v19.327a1.891 1.891 0 003.025 1.513l3.754-2.815a1.89 1.89 0 00.709-1.932L4.735 21.472A1.891 1.891 0 002.891 20z" fill="#ffe0b2"></path><path d="M8.488 37.984L4.735 21.472a1.884 1.884 0 00-3.344-.721c.165.213.282.459.344.721l3.753 16.512a1.89 1.89 0 01-.709 1.932l-3.333 2.5c.636.78 1.774.919 2.579.315l3.754-2.815a1.89 1.89 0 00.709-1.932zM10.719 42.71l-8.963 6.723A1.89 1.89 0 001 50.945v6.164C1 58.153 1.847 59 2.891 59h9.7a1.89 1.89 0 001.573-.842l5.072-7.612a1.894 1.894 0 00.2-1.713l-1.582-4.215a1.89 1.89 0 00-1.31-1.169l-4.224-1.06a1.894 1.894 0 00-1.601.321z" fill="#dfc49c"></path><path d="M31.109 52h-7.027c-.632 0-1.222.315-1.573.841l-2.147 3.219A1.89 1.89 0 0021.934 59h9.175A1.891 1.891 0 0033 57.109v-3.218A1.891 1.891 0 0031.109 52z" fill="#ffe0b2"></path><path d="M31.109 52h-3c1.044 0 1.891.847 1.891 1.891v3.218A1.891 1.891 0 0128.109 59h3A1.891 1.891 0 0033 57.109v-3.218A1.891 1.891 0 0031.109 52z" fill="#dfc49c"></path><path d="M44.664 43.167l-7.11 7.109A1.891 1.891 0 0037 51.613v5.5A1.891 1.891 0 0038.891 59h18.218A1.891 1.891 0 0059 57.109V55.6c0-.502-.2-.983-.554-1.338l-11.109-11.1a1.889 1.889 0 00-2.673.005z" fill="#ffe0b2"></path><path d="M58.446 54.266l-11.109-11.1a1.889 1.889 0 00-2.673 0l-.163.162 10.945 10.938c.354.354.553.834.554 1.334v1.505A1.891 1.891 0 0154.109 59h3A1.891 1.891 0 0059 57.109V55.6c0-.5-.2-.98-.554-1.334z" fill="#dfc49c"></path><path d="M21.774 20h-10.9a1.89 1.89 0 00-1.843 2.31l3.387 14.915a1.891 1.891 0 001.387 1.416l3.293.821a1.892 1.892 0 001.917-.633l9.765-11.851a1.891 1.891 0 00-.375-2.751l-5.547-3.885A1.884 1.884 0 0021.774 20z" fill="#ffe0b2"></path><path d="M28.406 24.227l-5.548-3.885A1.884 1.884 0 0021.774 20h-3c.388 0 .766.12 1.084.342l5.548 3.885a1.892 1.892 0 01.374 2.751l-9.761 11.851a1.909 1.909 0 01-.312.285l1.395.348a1.892 1.892 0 001.917-.633l9.761-11.851a1.892 1.892 0 00-.374-2.751zM44.843 27h-10.01c-.565 0-1.1.253-1.46.689l-11.4 13.848a1.89 1.89 0 00-.31 1.866l1.266 3.371A1.891 1.891 0 0024.7 48h8.687c.501 0 .982-.2 1.337-.554l9.15-9.15a1.9 1.9 0 00.481-.817l2.306-8.069A1.891 1.891 0 0044.843 27z" fill="#dfc49c"></path><g fill="#000"><path d="M31.432.767A2.881 2.881 0 0029.471 0h-14.16a2.891 2.891 0 00-2.756 3.762L16.1 14.979A2.879 2.879 0 0018.855 17H23c.206.001.407.064.577.179l8.991 6.3c.486.34 1.066.522 1.659.521h5.882A2.894 2.894 0 0043 21.109v-8.4a2.9 2.9 0 00-.931-2.125zM41 21.109a.891.891 0 01-.891.891h-5.882a.893.893 0 01-.512-.161l-9.005-6.308A3.054 3.054 0 0023 15h-4.145a.887.887 0 01-.849-.623L14.461 3.159A.891.891 0 0115.311 2h14.16c.223 0 .437.085.6.236l10.638 9.817a.891.891 0 01.287.655zM57.109 0H40.953a2.891 2.891 0 00-1.962 5.014l4.063 3.753a2.907 2.907 0 002.777.65l12.094-3.558A2.909 2.909 0 0060 3.085v-.194A2.894 2.894 0 0057.109 0zM58 3.085a.9.9 0 01-.64.855L45.267 7.5a.9.9 0 01-.856-.2l-4.062-3.755A.891.891 0 0140.953 2h16.156c.492 0 .891.399.891.891zM58.84 8.883a2.863 2.863 0 00-2.547-.458l-9.219 2.716A2.907 2.907 0 0045 13.914v7.2A2.894 2.894 0 0047.891 24h1.951c.08 0 .161 0 .238-.01l7.267-.6A2.908 2.908 0 0060 20.509V11.2a2.866 2.866 0 00-1.16-2.317zM58 20.509a.9.9 0 01-.817.888l-7.341.6h-1.951a.891.891 0 01-.891-.888v-7.2a.9.9 0 01.639-.854l9.218-2.717A.89.89 0 0158 11.2zM56.869 25.434l-4.109.341a2.907 2.907 0 00-2.54 2.088l-2.627 9.213a2.9 2.9 0 00.735 2.837l6.736 6.743a2.856 2.856 0 003.151.627A2.846 2.846 0 0060 44.612v-16.3a2.892 2.892 0 00-3.131-2.88zM58 44.612a.891.891 0 01-1.521.63L49.743 38.5a.893.893 0 01-.226-.875l2.627-9.213a.9.9 0 01.782-.644l4.109-.341h.076c.49.002.888.4.889.891zM2.891 17h7.8a2.891 2.891 0 002.756-3.762L9.9 2.021A2.879 2.879 0 007.145 0H2.891A2.894 2.894 0 000 2.891v11.218A2.894 2.894 0 002.891 17zM2 2.891C2 2.399 2.399 2 2.891 2h4.254a.887.887 0 01.849.623l3.545 11.218a.891.891 0 01-.85 1.159h-7.8A.891.891 0 012 14.109zM1.6 43.8a2.874 2.874 0 003.027-.273l3.753-2.811a2.9 2.9 0 001.084-2.954L5.71 21.25a2.891 2.891 0 00-5.71.641v19.327A2.875 2.875 0 001.6 43.8zM2 21.891a.891.891 0 011.759-.2l3.754 16.514a.893.893 0 01-.333.911l-3.754 2.815A.891.891 0 012 41.218zM12.588 60a2.882 2.882 0 002.405-1.288l5.072-7.612a2.893 2.893 0 00.3-2.618l-1.582-4.215a2.888 2.888 0 00-2-1.788l-4.224-1.06a2.872 2.872 0 00-2.438.492l-8.966 6.722A2.908 2.908 0 000 50.945v6.164A2.894 2.894 0 002.891 60zM2 57.109v-6.164a.9.9 0 01.355-.713l8.964-6.722a.885.885 0 01.75-.151l4.225 1.06a.89.89 0 01.617.551l1.582 4.216a.888.888 0 01-.093.8L13.329 57.6a.889.889 0 01-.741.4h-9.7A.891.891 0 012 57.109zM31.109 51h-7.028c-.965 0-1.865.483-2.4 1.286l-2.148 3.219A2.892 2.892 0 0021.935 60h9.174A2.894 2.894 0 0034 57.109v-3.218A2.894 2.894 0 0031.109 51zM32 57.109a.891.891 0 01-.891.891h-9.174a.891.891 0 01-.742-1.385l2.148-3.215c.164-.25.442-.4.74-.4h7.028c.492 0 .891.399.891.891zM48.044 42.458a2.9 2.9 0 00-4.088 0l-7.109 7.11A2.872 2.872 0 0036 51.613v5.5A2.894 2.894 0 0038.891 60h18.218A2.894 2.894 0 0060 57.109V55.6a2.909 2.909 0 00-.848-2.045zM58 57.109a.891.891 0 01-.891.891H38.891a.891.891 0 01-.891-.891v-5.5c0-.236.094-.463.261-.63l7.109-7.109a.891.891 0 011.26 0l11.109 11.1a.9.9 0 01.261.63z"></path><path d="M30.186 25.385a2.9 2.9 0 00-1.207-1.977l-5.547-3.885A2.884 2.884 0 0021.773 19H10.878a2.891 2.891 0 00-2.819 3.531l3.387 14.916a2.874 2.874 0 002.121 2.164l3.293.821a2.9 2.9 0 002.93-.967l9.762-11.851a2.9 2.9 0 00.634-2.229zm-2.177.957l-9.763 11.852a.89.89 0 01-.9.3l-3.294-.82A.889.889 0 0113.4 37l-3.39-14.912A.89.89 0 0110.878 21h10.9c.183 0 .362.056.512.162l5.547 3.884a.891.891 0 01.177 1.3zM44.582 39c.347-.347.6-.777.734-1.249l2.307-8.069A2.891 2.891 0 0044.843 26h-10.01a2.88 2.88 0 00-2.233 1.053L21.2 40.9a2.9 2.9 0 00-.474 2.853l1.266 3.372A2.9 2.9 0 0024.7 49h8.687a2.872 2.872 0 002.044-.847zm-11.195 8H24.7a.9.9 0 01-.834-.578l-1.266-3.37a.893.893 0 01.146-.88l11.4-13.848a.883.883 0 01.687-.324h10.01a.89.89 0 01.856 1.136l-2.306 8.07a.9.9 0 01-.226.383l-9.15 9.15a.886.886 0 01-.63.261z"></path></g></g></svg> 