<?xml version="1.0" encoding="UTF-8"?> <svg xmlns="http://www.w3.org/2000/svg" height="512" width="512"><path d="M136.201 17.827C117.376 11.148 97.116 7.5 76 7.5c0 99.4 80.571 179.981 179.967 179.999z" fill="#bee070"></path><path d="M256 187.5c-.002-78.298-49.997-144.904-119.799-169.672C139.769 112.416 192.02 187.474 256 187.5z" fill="#7ed65f"></path><path d="M405.974 10.007L256.039 187.499C355.432 187.478 436 106.899 436 7.5c-10.233 0-20.262.864-30.026 2.507z" fill="#348863"></path><path d="M405.974 10.007a179.165 179.165 0 00-30.175 7.82L256.017 187.5c82.148-.026 148.837-79.255 149.957-177.493z" fill="#39aa59"></path><path d="M375.799 17.828C305.997 42.596 256.002 109.202 256 187.496c63.972-.009 116.231-75.072 119.799-169.668z" fill="#3dcc4e"></path><path d="M196 217.5H7.5l90 135H286z" fill="#ffb13f"></path><path d="M474.5 217.5L226 352.5h188.5l90-135z" fill="#ff6237"></path><path d="M316 217.5l-90 135h158.5l90-135z" fill="#ff893b"></path><path d="M414.5 307.5l-100 109.25 100 87.75h30v-197z" fill="#ff893b"></path><path d="M256 307.5L146 416.75l110 87.75h158.5v-197z" fill="#ffb13f"></path><path d="M67.5 307.5H256v197H67.5z" fill="#ffcf70"></path><path d="M256 195c103.388 0 187.5-84.112 187.5-187.5A7.5 7.5 0 00436 0c-85.145 0-157.217 57.049-180 134.929C233.217 57.049 161.145 0 76 0a7.5 7.5 0 00-7.5 7.5C68.5 110.888 152.612 195 256 195zM428.332 15.168c-2.968 67.448-44.862 124.955-103.709 150.576 7.139-6.698 13.864-14.477 20.065-23.298 22.259-31.664 35.792-73.794 38.354-119.119a171.553 171.553 0 0145.29-8.159zm-60.728 13.989c-3.283 39.99-15.604 76.804-35.187 104.662-19.036 27.078-43.202 43.091-68.736 45.773 3.06-67.431 45.027-124.894 103.923-150.435zM248.318 179.588c-25.541-2.698-49.705-18.711-68.735-45.778C160 105.957 147.679 69.146 144.396 29.157c58.895 25.541 100.861 83.001 103.922 150.431zM128.957 23.327c2.562 45.325 16.096 87.452 38.355 119.111 6.208 8.829 12.941 16.615 20.089 23.317C128.542 140.139 86.636 82.626 83.668 15.168a171.538 171.538 0 0145.289 8.159zM511.112 213.961A7.501 7.501 0 00504.5 210H316a7.497 7.497 0 00-6.24 3.34L256 293.979l-53.76-80.639A7.5 7.5 0 00196 210H7.5a7.498 7.498 0 00-6.24 11.66L60 309.771V504.5a7.5 7.5 0 007.5 7.5h377a7.5 7.5 0 007.5-7.5V309.771l58.74-88.111a7.498 7.498 0 00.372-7.699zM21.514 225h170.473l50 75H71.514zM437 497H263.5v-22.5c0-4.142-3.357-7.5-7.5-7.5s-7.5 3.358-7.5 7.5V497H75V315h173.5v129.5c0 4.142 3.357 7.5 7.5 7.5s7.5-3.358 7.5-7.5V315H437zm3.486-197H270.014l50-75h170.473z"></path></svg> 