<?xml version="1.0" encoding="UTF-8"?> <svg xmlns="http://www.w3.org/2000/svg" height="512" viewBox="0 0 60 61" width="512"><g fill-rule="nonzero" fill="none"><path d="M13 29v1a4 4 0 01-4 4H6a3.66 3.66 0 01-1-.13 4.08 4.08 0 01-1.83-1A4 4 0 012 30a3.08 3.08 0 01.16-1z" fill="#f44335"></path><path d="M24 29v1a4 4 0 01-4 4h-3a4 4 0 01-4-4v-1z" fill="#f5f5f5"></path><path d="M36 29v1a4 4 0 01-4 4h-4a4 4 0 01-4-4v-1zM57.84 29H2.16a3 3 0 01.38-.84l5-7.84a5 5 0 014.2-2.32h9.62l.47 5.18a2 2 0 002 1.82h12.34a2 2 0 002-1.82l.47-5.18H48a5.1 5.1 0 014.47 2.32l5 7.84a3 3 0 01.37.84z" fill="#f44335"></path><path d="M57.46 28.16l-5-7.84A5.1 5.1 0 0048 18h-3a5.1 5.1 0 014.47 2.32l5 7.84a3 3 0 01.38.84h3a3 3 0 00-.39-.84z" fill="#c81e1e"></path><path d="M58 30a4 4 0 01-1.17 2.83 4.08 4.08 0 01-1.83 1 3.66 3.66 0 01-1 .17h-3a4 4 0 01-4-4v-1h10.84c.108.322.162.66.16 1z" fill="#f44335"></path><path d="M57.84 29h-3c.108.322.162.66.16 1a4 4 0 01-1.17 2.83 4.08 4.08 0 01-1.83 1 3.66 3.66 0 01-1 .17h3a3.66 3.66 0 001-.13 4.08 4.08 0 001.83-1A4 4 0 0058 30a3.08 3.08 0 00-.16-1z" fill="#c81e1e"></path><path d="M47 29v1a4 4 0 01-4 4h-3a4 4 0 01-4-4v-1z" fill="#f5f5f5"></path><path d="M9 34v18H5V33.87c.326.09.662.133 1 .13zM55 33.87V52h-4V34h3a3.66 3.66 0 001-.13z" fill="#91562d"></path><rect fill="#7f8e94" height="4" rx="2" width="58" x="1" y="52"></rect><path d="M57 52h-3a2 2 0 110 4h3a2 2 0 100-4z" fill="#545c60"></path><path d="M3 56h54v2a2 2 0 01-2 2H5a2 2 0 01-2-2z" fill="#ffdc00"></path><path d="M54 56v2a2 2 0 01-2 2h3a2 2 0 002-2v-2z" fill="#fec108"></path><rect fill="#ff5722" height="4" rx="1" width="22" x="19" y="10"></rect><path d="M40 10h-3a1 1 0 011 1v2a1 1 0 01-1 1h3a1 1 0 001-1v-2a1 1 0 00-1-1z" fill="#d84315"></path><path d="M39 14l-.36 4-.47 5.18a2 2 0 01-2 1.82H23.83a2 2 0 01-2-1.82L21.36 18 21 14z" fill="#ff5722"></path><path d="M36 14l-.36 4-.47 5.18a2 2 0 01-2 1.82h3a2 2 0 002-1.82l.47-5.18.36-4z" fill="#d84315"></path><path d="M30 5.81A11 11 0 0029 10a7.89 7.89 0 01-4.49-1.72C22 6.07 22 2 22 2s4-.47 6.48 1.72A6.48 6.48 0 0130 5.81z" fill="#008a00"></path><path d="M38 2s0 4-2.52 6.22S29 10 29 10a11 11 0 011-4.17 6.6 6.6 0 011.51-2C34 1.57 38 2 38 2z" fill="#60a917"></path><path d="M24 52h-6l-1-8h8zM42 52h-6l-1-8h8z" fill="#ff5722"></path><path d="M57 51h-1V34.57a4.93 4.93 0 001.54-1A5 5 0 0059 30a4.41 4.41 0 00-.7-2.38l-5-7.83A6.11 6.11 0 0048 17h-8.27l.18-2H40a2 2 0 002-2v-2a2 2 0 00-2-2h-3.84C38.93 6.54 39 2.23 39 2.05a1 1 0 00-.88-1c-.19 0-4.48-.49-7.27 2a7.3 7.3 0 00-.85.92 6.88 6.88 0 00-.86-.97c-2.78-2.46-7.08-2-7.26-2A1 1 0 0021 2c0 .18.07 4.49 2.84 7H20a2 2 0 00-2 2v2a2 2 0 002 2h.09l.18 2h-8.53a6 6 0 00-5 2.78l-5 7.84A4.41 4.41 0 001 30a5 5 0 001.47 3.54 4.86 4.86 0 001.53 1V51H3a3 3 0 00-1 5.82V58a3 3 0 003 3h50a3 3 0 003-3v-1.18A3 3 0 0057 51zm-3 0h-2V35h2zm-10.87 0l.75-6H44a1 1 0 000-2h-4.06a12.65 12.65 0 00-.64-3 2.56 2.56 0 011.15-1.1 1 1 0 10-.9-1.78 4.57 4.57 0 00-1.25.9 5.14 5.14 0 00-.59-.72 1.004 1.004 0 10-1.42 1.42A7.5 7.5 0 0137.93 43H34a1 1 0 000 2h.12l.75 6h-9.74l.75-6H26a1 1 0 000-2h-4.06a12.65 12.65 0 00-.64-3 2.56 2.56 0 011.15-1.1 1 1 0 10-.9-1.78 4.57 4.57 0 00-1.25.9 5.14 5.14 0 00-.59-.72 1.004 1.004 0 10-1.42 1.42A7.5 7.5 0 0119.93 43H16a1 1 0 000 2h.12l.75 6H10V34.9a5 5 0 003-1.9 5 5 0 004 2h3a5 5 0 004-2 5 5 0 004 2h4a5 5 0 004-2 5 5 0 004 2h3a5 5 0 004-2 5 5 0 003 1.93V51zm-7-6h5.74l-.75 6h-4.24zm-18 0h5.74l-.75 6h-4.24zM35 26v2H25v-2zm0 4a3 3 0 01-3 3h-4a3 3 0 01-3-3zm11 0a3 3 0 01-3 3h-3a3 3 0 01-3-3zm-32 0h9a3 3 0 01-3 3h-3a3 3 0 01-3-3zm42.13 2.12A3 3 0 0154 33h-3a3 3 0 01-3-3h9a3 3 0 01-.87 2.12zM48 19a4.1 4.1 0 013.63 1.86L56.17 28h-8.49l-1.75-4.37a1 1 0 00-1.86.74L45.52 28H37v-2.13a3 3 0 002.16-2.6l.39-4.27zM36.91 3a7.43 7.43 0 01-2.09 4.51A7 7 0 0130.65 9h-.56a7.51 7.51 0 012.09-4.49A7.51 7.51 0 0136.91 3zM23.09 3a7.53 7.53 0 014.73 1.51 5.43 5.43 0 011.06 1.36 11.9 11.9 0 00-.79 3 6.18 6.18 0 01-2.92-1.33A7.56 7.56 0 0123.09 3zM20 11h20v2H20zm17.91 4l-.74 8.09a1 1 0 01-1 .91H23.83a1 1 0 01-1-.91L22.09 15zM8.38 20.85A4 4 0 0111.74 19h8.71l.39 4.27a3 3 0 002.16 2.6V28h-8.52l1.45-3.63a1 1 0 00-1.86-.74L12.32 28H3.83zM3 30h9a3 3 0 01-3 3H6a3 3 0 01-3-3zm3 5h2v16H6zm50 23a1 1 0 01-1 1H5a1 1 0 01-1-1v-1h52zm1-3H3a1 1 0 010-2h54a1 1 0 010 2z" fill="#000"></path></g></svg> 