<?xml version="1.0" encoding="UTF-8"?> <svg xmlns="http://www.w3.org/2000/svg" id="Layer_1" data-name="Layer 1" width="242.74" height="56.41"><defs><style>.cls-1{fill:#14b419}.cls-2{fill:#fff}</style></defs><path class="cls-1" d="M133.26 32.27c6.12-1.08 10.14-2.24 14-5.58 4.55-3.9 5.41-11.08 4.1-15.18-4.32 6.28-22.13 1.73-19.55 17.61 6.52-7 14.7-5.22 18-13.62a36.81 36.81 0 01-6.24 8.18 43.06 43.06 0 01-13 8.63c-.19.07-1 .36-1 .47a22.31 22.31 0 003.69-.51z" transform="translate(-3.87 -11.51)"></path><path class="cls-2" d="M22.28 67.32a13.88 13.88 0 01-5.6-1.13A14.52 14.52 0 019 58.51a14 14 0 01-1.13-5.6v-9.56h-4v-8.18h4V22.29h8.18v12.88h12.46v8.18H16.05v9.56a6.16 6.16 0 00.48 2.43 6.22 6.22 0 003.31 3.3 5.92 5.92 0 002.44.5h6.23v8.18zM82.05 63.56a23.54 23.54 0 01-2.12 1.7 17.08 17.08 0 01-2.37 1.39 14.3 14.3 0 01-2.54.93 10.38 10.38 0 01-2.66.34 14.86 14.86 0 01-5.59-1 13.76 13.76 0 01-4.59-3 13.94 13.94 0 01-3.1-4.72A16.57 16.57 0 0158 52.91V42.59c0-1.42 1.91-2.3 2.9-4.5.63-1.39.51-2.43 1.41-2.85a2.32 2.32 0 011-.13h2.89v17.8a8 8 0 00.5 2.91A6.39 6.39 0 0068 58a5.6 5.6 0 002 1.32 6.47 6.47 0 002.42.45 5.11 5.11 0 002.39-.58 6.9 6.9 0 002-1.55 7.82 7.82 0 001.33-2.18 6.84 6.84 0 00.48-2.52V35.11h8.21v32.21h-2z" transform="translate(-3.87 -11.51)"></path><path class="cls-1" d="M101.27 67.32H93v-45h8.27v28.4l12.24-15.52H123l-10.72 13.38L123 67.32h-9.44L107 55.62l-5.71 7.58zM134.47 67.32h-8.27V35.11h8.27zM158.42 67.32h-18.77v-8.18h18.77a2 2 0 002-2 1.12 1.12 0 00-.6-1.15 3.49 3.49 0 00-1.44-.27h-8.55a10 10 0 01-4-.81 10.3 10.3 0 01-3.24-2.21 10.18 10.18 0 01-2.18-3.27 10.4 10.4 0 010-8 10.05 10.05 0 012.18-3.24 10.24 10.24 0 013.28-2.19 10.12 10.12 0 014-.79h16.64v8.18h-16.64a2 2 0 00-2 2 2 2 0 00.6 1.49 2 2 0 001.44.62h8.55a11.18 11.18 0 014 .71 10 10 0 013.25 2 9.24 9.24 0 013 6.92 9.8 9.8 0 01-.81 4 10.69 10.69 0 01-2.19 3.25 10.43 10.43 0 01-3.25 2.2 10 10 0 01-4.04.74zM204.2 67.32h-2L199 62.9a25.23 25.23 0 01-2.48 2 18.36 18.36 0 01-2.75 1.59 16.14 16.14 0 01-3 1.07 12.4 12.4 0 01-3.09.39 17.84 17.84 0 01-6.39-1.14 15.2 15.2 0 01-5.23-3.32 15.73 15.73 0 01-3.54-5.34 18.89 18.89 0 01-1.29-7.19 18 18 0 011.29-6.9 16.39 16.39 0 013.54-5.4 15.84 15.84 0 015.23-3.51 16.51 16.51 0 016.39-1.25 12.48 12.48 0 013.1.39 16.61 16.61 0 013 1.09 18.54 18.54 0 012.79 1.62 21.92 21.92 0 012.43 2l3.19-3.82h2zm-8.27-16.39a8.54 8.54 0 00-.65-3.26 9.29 9.29 0 00-1.76-2.8 8.78 8.78 0 00-2.6-2 7.07 7.07 0 00-3.18-.73 8.78 8.78 0 00-3.17.57 7.33 7.33 0 00-2.57 1.72 8.07 8.07 0 00-1.73 2.75 11.45 11.45 0 000 7.49 8.11 8.11 0 001.73 2.76 7.33 7.33 0 002.59 1.68 8.78 8.78 0 003.17.57 7 7 0 003.18-.74 8.75 8.75 0 002.6-1.95 9.29 9.29 0 001.76-2.8 8.54 8.54 0 00.63-3.26zM218.67 67.32h-8.22V35.11h2l2.71 3.13a14.23 14.23 0 014.49-2.79 14.42 14.42 0 015.25-1 14 14 0 015.57 1.12A14.61 14.61 0 01235 38.7a14.8 14.8 0 013.08 4.6 14.16 14.16 0 011.13 5.61v18.41H231V48.91a6 6 0 00-.48-2.39 6.23 6.23 0 00-3.28-3.29 6 6 0 00-2.38-.48 6.2 6.2 0 00-2.43.48 6.07 6.07 0 00-2 1.32 6.2 6.2 0 00-1.32 2 6 6 0 00-.48 2.39z" transform="translate(-3.87 -11.51)"></path><path class="cls-2" d="M38.33 47.37c0-.56 2.57-3.14 3.14-3.73a30.34 30.34 0 0110.69-7l2.63-.91c-4.49 0-10.26 2.37-13.61 5.2a25.22 25.22 0 00-7.32 10.91c-.54-.77 1.66-7.21 2.12-8.25a20 20 0 014.3-6.36l.18-.17a14.27 14.27 0 00-2.66 1.92l-2.71-3.82h-2v32.16h8.21V49.58a6.24 6.24 0 01.25-1.79c-1.09-.12-2.14-.33-3.22-.42z" transform="translate(-3.87 -11.51)"></path><path class="cls-2" d="M34 52.88l-.58-.81c-.16-.23-.27-.6 0-1.84.13-.68.35-1.55.66-2.6.54-1.83 1.21-3.73 1.46-4.28a20.32 20.32 0 014.41-6.52 18 18 0 019.39-4.75 54.12 54.12 0 0110.9-.7l3.9-.35-.14.65a21.82 21.82 0 01-8.44 12.87 20.78 20.78 0 01-12.44 3.84 21.61 21.61 0 01-3-.3c-.62-.1-1.21-.18-1.82-.23h-.44v-.44c0-.46.47-1.22 3.08-3.88l.19-.2a31.06 31.06 0 019.23-6.48 23.85 23.85 0 00-8.84 4.44 24.56 24.56 0 00-7.17 10.67zm.25-1.34zm24.27-19.18c-6.23 0-13 .37-17.89 5.17a19.38 19.38 0 00-4.2 6.21c-.22.5-.85 2.26-1.36 4a26 26 0 015.8-7.26 24 24 0 016.53-3.75 20.8 20.8 0 017.35-1.56h2.95l-5.36 1.86A29.68 29.68 0 0041.82 44l-.2.2a34.41 34.41 0 00-2.51 2.8l1.15.16a19.92 19.92 0 002.85.29h.15A19.74 19.74 0 0055 43.76a21 21 0 007.91-11.63l-2.6.24h-1.79zM234.35 21.74H232v-1.1h6v1.1h-2.32v5.9h-1.3zM245.38 27.64V23l-2.3 3.84h-.58l-2.3-3.78v4.58H239v-7h1l2.78 4.64 2.73-4.64h1.07v7z" transform="translate(-3.87 -11.51)"></path></svg> 