<?xml version="1.0" encoding="UTF-8"?> <svg xmlns="http://www.w3.org/2000/svg" height="512" viewBox="0 0 64 64" width="512"><path d="M58 26h4v18h-4zM58 52h4v10h-4zM2 52h4v10H2zM2 26h4v18H2z" fill="#aab2bd"></path><path d="M61 18H3c-.55 0-1 .45-1 1v7h60v-7c0-.55-.45-1-1-1zM2 44v8h60v-8z" fill="#ccd1d9"></path><path d="M48 2c4.11 0 7.5 2.72 7.95 6.21a9.928 9.928 0 00-4.36 2.11c.26-.4.41-.84.41-1.32 0-1.66-1.79-3-4-3s-4 1.34-4 3c0 .48.15.92.41 1.32a9.928 9.928 0 00-4.36-2.11C40.5 4.72 43.89 2 48 2zM16 2c4.11 0 7.5 2.72 7.95 6.21a9.928 9.928 0 00-4.36 2.11c.26-.4.41-.84.41-1.32 0-1.66-1.79-3-4-3s-4 1.34-4 3c0 .48.15.92.41 1.32a9.928 9.928 0 00-4.36-2.11C8.5 4.72 11.89 2 16 2z" fill="#b4dd7f"></path><path d="M51.59 10.32C49.4 12.16 48 14.92 48 18c0-3.08-1.4-5.84-3.59-7.68-.26-.4-.41-.84-.41-1.32 0-1.66 1.79-3 4-3s4 1.34 4 3c0 .48-.15.92-.41 1.32zM19.59 10.32C17.4 12.16 16 14.92 16 18c0-3.08-1.4-5.84-3.59-7.68-.26-.4-.41-.84-.41-1.32 0-1.66 1.79-3 4-3s4 1.34 4 3c0 .48-.15.92-.41 1.32zM44.15 32c1.34 0 2.55.54 3.43 1.42a4.829 4.829 0 011.25 4.69C46.08 38.66 44 41.09 44 44c0-1.66-.67-3.16-1.76-4.24a5.957 5.957 0 00-3.07-1.65c-.11-.41-.17-.83-.17-1.26 0-2.68 2.17-4.85 4.85-4.85zM20 44c0-1.66-.67-3.16-1.76-4.24a5.957 5.957 0 00-3.07-1.65c-.11-.41-.17-.83-.17-1.26 0-2.68 2.17-4.85 4.85-4.85h.3c1.34 0 2.55.54 3.43 1.42a4.829 4.829 0 011.25 4.69C22.08 38.66 20 41.09 20 44z" fill="#a0d468"></path><path d="M44 44c0-2.91 2.08-5.34 4.83-5.89.38-.07.77-.11 1.17-.11 1.1 0 2.1.45 2.83 1.17a3.99 3.99 0 01.63 4.83c-.17.3-.39.58-.63.83C52.1 45.55 51.1 46 50 46h-6z" fill="#b4dd7f"></path><path d="M44 44v2h-6c-1.48 0-2.77-.8-3.46-2a3.99 3.99 0 01.63-4.83C35.9 38.45 36.9 38 38 38c.4 0 .79.04 1.17.11 1.19.24 2.25.82 3.07 1.65A5.944 5.944 0 0144 44zM20 46v-2c0-2.91 2.08-5.34 4.83-5.89.38-.07.77-.11 1.17-.11 1.1 0 2.1.45 2.83 1.17a3.99 3.99 0 01.63 4.83c-.17.3-.39.58-.63.83C28.1 45.55 27.1 46 26 46z" fill="#b4dd7f"></path><path d="M18.24 39.76A5.944 5.944 0 0120 44v2h-6c-1.48 0-2.77-.8-3.46-2a3.99 3.99 0 01.63-4.83C11.9 38.45 12.9 38 14 38c.4 0 .79.04 1.17.11 1.19.24 2.25.82 3.07 1.65zM48 18c0-3.08 1.4-5.84 3.59-7.68a9.928 9.928 0 014.36-2.11A9.9 9.9 0 0158 8h4v2a9.99 9.99 0 01-4 8c-1.67 1.25-3.75 2-6 2h-4zM48 20h-4c-2.25 0-4.33-.75-6-2a9.99 9.99 0 01-4-8V8h4c.7 0 1.39.07 2.05.21 1.64.34 3.13 1.08 4.36 2.11C46.6 12.16 48 14.92 48 18zM16 18c0-3.08 1.4-5.84 3.59-7.68a9.928 9.928 0 014.36-2.11A9.9 9.9 0 0126 8h4v2a9.99 9.99 0 01-4 8c-1.67 1.25-3.75 2-6 2h-4zM12.41 10.32C14.6 12.16 16 14.92 16 18v2h-4c-2.25 0-4.33-.75-6-2a9.99 9.99 0 01-4-8V8h4c.7 0 1.39.07 2.05.21 1.64.34 3.13 1.08 4.36 2.11z" fill="#b4dd7f"></path><path d="M63 7h-5c-.43 0-.852.032-1.269.08C55.757 3.553 52.19 1 48 1s-7.757 2.553-8.731 6.08A11.07 11.07 0 0038 7h-5v3c0 2.657.947 5.097 2.521 7h-7.043A10.944 10.944 0 0031 10V7h-5c-.43 0-.852.032-1.269.08C23.757 3.553 20.19 1 16 1S8.243 3.553 7.269 7.08A11.07 11.07 0 006 7H1v3c0 2.657.947 5.097 2.521 7H3c-1.103 0-2 .897-2 2v44h62V19c0-1.103-.897-2-2-2h-.521A10.95 10.95 0 0063 10zM48 3c3.233 0 5.981 1.878 6.768 4.486-.649.2-1.27.462-1.862.773C52.47 6.407 50.44 5 48 5s-4.47 1.407-4.906 3.259a10.917 10.917 0 00-1.862-.773C42.019 4.878 44.767 3 48 3zm0 10.419A11.06 11.06 0 0045.209 9.7 1.387 1.387 0 0145 9c0-1.084 1.374-2 3-2s3 .916 3 2c0 .24-.077.474-.209.7A11.06 11.06 0 0048 13.419zM35 9h3c4.35 0 7.988 3.102 8.82 7.211a13.74 13.74 0 00-8.656-5.197l-.329 1.973a11.768 11.768 0 018.314 5.791l.128.222H44c-4.962 0-9-4.037-9-9zm-6 0v1c0 4.963-4.038 9-9 9h-2.277l.127-.223a11.768 11.768 0 018.314-5.791l-.329-1.973a13.74 13.74 0 00-8.656 5.197C18.012 12.102 21.65 9 26 9zm-15.791.7A1.387 1.387 0 0113 9c0-1.084 1.374-2 3-2s3 .916 3 2c0 .24-.077.474-.209.7A11.06 11.06 0 0016 13.419 11.06 11.06 0 0013.209 9.7zM16 3c3.233 0 5.981 1.878 6.768 4.486-.649.2-1.27.462-1.862.773C20.47 6.407 18.44 5 16 5s-4.47 1.407-4.906 3.259a10.917 10.917 0 00-1.862-.773C10.019 4.878 12.767 3 16 3zM3 9h3c4.35 0 7.988 3.102 8.82 7.211a13.74 13.74 0 00-8.656-5.197l-.329 1.973a11.768 11.768 0 018.314 5.791l.128.222H12c-4.962 0-9-4.037-9-9zm54 44v8H7v-8zM3 51v-6h7.026c.914 1.207 2.348 2 3.974 2h12c1.627 0 3.061-.793 3.974-2h4.051c.914 1.207 2.348 2 3.974 2h12c1.627 0 3.061-.793 3.974-2H61v6zm13-14.146A3.858 3.858 0 0119.854 33h.292A3.858 3.858 0 0124 36.854c0 .153-.012.305-.03.456a7.002 7.002 0 00-2.963 1.797 8.504 8.504 0 01.887-3.661l-1.789-.895a10.528 10.528 0 00-1.099 4.571 6.992 6.992 0 00-2.977-1.813 4.027 4.027 0 01-.029-.455zM26.472 41a8.19 8.19 0 00-5.371 1.996A5.01 5.01 0 0126 39c1.654 0 3 1.346 3 3s-1.346 3-3 3h-4.107a6.197 6.197 0 014.58-2H27v-2zm-7.574 1.996A8.185 8.185 0 0013.528 41H13v2h.528a6.2 6.2 0 014.58 2H14c-1.654 0-3-1.346-3-3s1.346-3 3-3a5.008 5.008 0 014.898 3.996zM40 36.854A3.858 3.858 0 0143.854 33h.292A3.858 3.858 0 0148 36.854c0 .153-.012.305-.03.456a7.002 7.002 0 00-2.963 1.797 8.504 8.504 0 01.887-3.661l-1.789-.895a10.528 10.528 0 00-1.099 4.571 6.992 6.992 0 00-2.977-1.813 4.027 4.027 0 01-.029-.455zM50.472 41a8.19 8.19 0 00-5.371 1.996A5.01 5.01 0 0150 39c1.654 0 3 1.346 3 3s-1.346 3-3 3h-4.107a6.197 6.197 0 014.58-2H51v-2zm-7.574 1.996A8.185 8.185 0 0037.528 41H37v2h.528a6.2 6.2 0 014.58 2H38c-1.654 0-3-1.346-3-3s1.346-3 3-3a5.008 5.008 0 014.898 3.996zM59 43V27h2v16zm-2 0h-2.101A5.006 5.006 0 0050 37l-.01.001c.001-.049.01-.097.01-.146A5.86 5.86 0 0044.146 31h-.292A5.86 5.86 0 0038 36.854c0 .049.008.097.01.146H38a5.006 5.006 0 00-4.899 6h-2.202A5.006 5.006 0 0026 37l-.01.001c.001-.049.01-.097.01-.146A5.86 5.86 0 0020.146 31h-.292A5.86 5.86 0 0014 36.854c0 .049.008.097.01.146H14a5.006 5.006 0 00-4.899 6H7V27h50zM5 43H3V27h2zM3 53h2v8H3zm56 8v-8h2v8zm2-36H3v-6h2.695c1.787 1.256 3.959 2 6.305 2h8a10.93 10.93 0 006.305-2h11.391c1.787 1.256 3.959 2 6.305 2h8a10.93 10.93 0 006.305-2H61zm0-15c0 4.963-4.038 9-9 9h-2.277l.127-.223a11.768 11.768 0 018.314-5.791l-.329-1.973a13.74 13.74 0 00-8.656 5.197C50.012 12.102 53.65 9 58 9h3z"></path></svg> 